<svg width="106" height="130" viewBox="0 0 106 130" fill="none" xmlns="http://www.w3.org/2000/svg">
    <path fill-rule="evenodd" clip-rule="evenodd" d="M62.6586 62.4531C64.0552 59.2021 64.6433 56.3541 64.9557 54.1349C67.8592 32.9008 50.9527 21.2644 32.9805 15.928C28.1658 14.4956 20.3007 13.9277 14.365 16.0815C10.1936 17.5931 6.95925 20.4158 6.15069 25.0751C5.25023 30.1513 7.73114 35.4548 11.7372 40.2389C17.5258 47.163 26.4752 53.0226 32.0984 55.567C38.5854 58.4999 49.0784 61.9437 59.7368 63.9618C57.9543 67.3497 55.2529 71.0998 51.0631 74.9712C49.207 76.6986 46.6527 78.1753 43.7492 79.3628C41.5624 75.1165 38.4384 71.113 34.3772 67.5807C30.9592 64.6162 22.6162 59.7398 15.2288 58.2432C9.95471 57.179 5.1768 57.8642 2.64083 61.6737C-0.501558 66.4092 0.600964 70.8227 3.66985 74.5145C7.98834 79.7151 16.3497 83.4102 21.293 84.3217C27.0449 85.3791 35.5716 84.3982 42.72 81.8576C49.354 96.5947 44.521 113.929 28.9744 123.463C28.515 123.751 28.368 124.367 28.6437 124.837C28.9377 125.308 29.5625 125.455 30.0219 125.166C46.4689 115.076 51.6143 96.736 44.6128 81.1336C47.7001 79.8623 50.4382 78.2826 52.4228 76.4385C57.0353 72.171 59.9388 68.0377 61.7949 64.3337C63.7979 64.6777 65.8011 64.9664 67.7857 65.1873C76.6984 66.1842 85.0596 65.772 90.5542 62.9046C103.252 56.28 106.781 43.1562 104.373 30.3455C101.984 17.6582 93.7702 5.32511 83.1302 0.102307C82.634 -0.140815 82.0276 0.0642701 81.7887 0.559702C81.5498 1.05532 81.752 1.65495 82.2481 1.89789C92.3736 6.86764 100.147 18.6417 102.407 30.7142C104.649 42.6635 101.47 54.9521 89.6354 61.1312C84.398 63.853 76.4779 64.1461 68.0063 63.1997C66.2421 63.0027 64.4595 62.7506 62.6586 62.4531ZM41.8563 80.0852C39.7798 76.1265 36.858 72.3907 33.054 69.0907C29.8014 66.2682 21.8811 61.6285 14.8245 60.2034C10.4508 59.3197 6.40796 59.6168 4.31303 62.7803C1.74031 66.6387 2.71434 70.2297 5.21355 73.2377C9.21964 78.0867 17.0481 81.505 21.6606 82.3547C27.0633 83.3513 35.1121 82.4558 41.8563 80.0852ZM60.6372 62.0966C62.0706 58.8709 62.6586 56.0479 62.971 53.8639C65.7275 33.7311 49.4459 22.9049 32.4109 17.8452C27.927 16.5091 20.5947 15.9526 15.045 17.9616C11.5718 19.2251 8.79695 21.5274 8.11701 25.4219C7.30844 29.9703 9.67902 34.6683 13.2625 38.9551C18.8489 45.6374 27.5043 51.2893 32.9254 53.745C39.4123 56.6782 49.9604 60.1292 60.6372 62.0966Z" fill="#9669BA"/>
    <path fill-rule="evenodd" clip-rule="evenodd" d="M30.2279 123.752C30.5954 122.8 31.6429 120.056 31.7899 119.638C32.1942 118.461 32.231 117.815 32.1942 117.153C32.1575 116.622 32.0472 116.076 32.1024 115.076C32.1391 114.525 31.698 114.057 31.1467 114.029C30.5954 114.001 30.136 114.428 30.0992 114.979C30.0625 115.885 30.1177 116.46 30.1728 116.964C30.228 117.544 30.2463 117.996 29.8972 118.987C29.7318 119.47 28.5189 122.06 28.2065 123.346C28.0411 124.017 28.133 124.52 28.2616 124.741C28.4454 125.057 28.7762 125.354 29.2908 125.558C29.9523 125.818 31.0549 125.968 32.2861 126.165C33.4439 126.347 34.7485 126.578 35.8879 127.067C36.8434 127.484 37.6705 128.087 38.0747 129.09C38.2769 129.603 38.8466 129.857 39.3611 129.655C39.8756 129.452 40.1328 128.87 39.9307 128.357C39.3427 126.839 38.1299 125.864 36.6782 125.233C35.3918 124.676 33.9217 124.395 32.5986 124.189C31.8084 124.063 31.0732 123.965 30.5036 123.835C30.4117 123.815 30.3198 123.783 30.2279 123.752Z" fill="#9669BA"/>
</svg>