<svg width="112" height="113" viewBox="0 0 112 113" fill="none" xmlns="http://www.w3.org/2000/svg">
                                <g filter="url(#filter0_di_1_1104)">
                                <circle cx="54" cy="55" r="50" fill="url(#paint0_linear_1_1104)" shape-rendering="crispEdges"/>
                                </g>
                                <g filter="url(#filter1_d_1_1104)">
                                <path d="M54.2833 39.3333H50.95C42.6167 39.3333 39.2833 42.6667 39.2833 51V61C39.2833 69.3333 42.6167 72.6667 50.95 72.6667H60.95C69.2833 72.6667 72.6167 69.3333 72.6167 61V57.6667" stroke="#611E97" stroke-width="1.5" stroke-linecap="round" stroke-linejoin="round"/>
                                <path d="M72.4667 41.9333C70.4167 47.05 65.2667 54.0167 60.9667 57.4667L58.3333 59.5667C58 59.8167 57.6667 60.0167 57.2833 60.1667C57.2833 59.9167 57.2667 59.6667 57.2333 59.4C57.0833 58.2833 56.5833 57.2333 55.6833 56.35C54.7667 55.4333 53.6667 54.9167 52.5333 54.7667C52.2667 54.75 52 54.7333 51.7333 54.75C51.8833 54.3333 52.1 53.95 52.3833 53.6333L54.4833 51C57.9333 46.7 64.9167 41.5167 70.0167 39.4667C70.8 39.1667 71.5667 39.4 72.05 39.8833C72.55 40.3833 72.7833 41.15 72.4667 41.9333Z" stroke="#611E97" stroke-width="1.5" stroke-linecap="round" stroke-linejoin="round"/>
                                <path d="M57.3 60.15C57.3 61.6167 56.7333 63.0167 55.6833 64.0833C54.8667 64.9 53.7667 65.4667 52.45 65.6333L49.1667 65.9833C47.3833 66.1833 45.85 64.6667 46.05 62.85L46.4 59.5667C46.7167 56.65 49.15 54.7833 51.75 54.7333C52.0167 54.7167 52.2833 54.7333 52.55 54.75C53.6833 54.9 54.7833 55.4167 55.7 56.3333C56.6 57.2333 57.1 58.2667 57.25 59.3833C57.2833 59.65 57.3 59.9167 57.3 60.15Z" stroke="#611E97" stroke-width="1.5" stroke-linecap="round" stroke-linejoin="round"/>
                                <path d="M62.3667 55.9667C62.3667 52.4833 59.55 49.65 56.05 49.65" stroke="#611E97" stroke-width="1.5" stroke-linecap="round" stroke-linejoin="round"/>
                                </g>
                                <defs>
                                <filter id="filter0_di_1_1104" x="0" y="5" width="108" height="108" filterUnits="userSpaceOnUse" color-interpolation-filters="sRGB">
                                <feFlood flood-opacity="0" result="BackgroundImageFix"/>
                                <feColorMatrix in="SourceAlpha" type="matrix" values="0 0 0 0 0 0 0 0 0 0 0 0 0 0 0 0 0 0 127 0" result="hardAlpha"/>
                                <feOffset dy="4"/>
                                <feGaussianBlur stdDeviation="2"/>
                                <feComposite in2="hardAlpha" operator="out"/>
                                <feColorMatrix type="matrix" values="0 0 0 0 0 0 0 0 0 0 0 0 0 0 0 0 0 0 0.25 0"/>
                                <feBlend mode="normal" in2="BackgroundImageFix" result="effect1_dropShadow_1_1104"/>
                                <feBlend mode="normal" in="SourceGraphic" in2="effect1_dropShadow_1_1104" result="shape"/>
                                <feColorMatrix in="SourceAlpha" type="matrix" values="0 0 0 0 0 0 0 0 0 0 0 0 0 0 0 0 0 0 127 0" result="hardAlpha"/>
                                <feOffset dy="4"/>
                                <feGaussianBlur stdDeviation="2"/>
                                <feComposite in2="hardAlpha" operator="arithmetic" k2="-1" k3="1"/>
                                <feColorMatrix type="matrix" values="0 0 0 0 0 0 0 0 0 0 0 0 0 0 0 0 0 0 0.25 0"/>
                                <feBlend mode="normal" in2="shape" result="effect2_innerShadow_1_1104"/>
                                </filter>
                                <filter id="filter1_d_1_1104" x="0" y="0" width="112" height="112" filterUnits="userSpaceOnUse" color-interpolation-filters="sRGB">
                                <feFlood flood-opacity="0" result="BackgroundImageFix"/>
                                <feColorMatrix in="SourceAlpha" type="matrix" values="0 0 0 0 0 0 0 0 0 0 0 0 0 0 0 0 0 0 127 0" result="hardAlpha"/>
                                <feOffset/>
                                <feGaussianBlur stdDeviation="18"/>
                                <feComposite in2="hardAlpha" operator="out"/>
                                <feColorMatrix type="matrix" values="0 0 0 0 0.729412 0 0 0 0 0.407843 0 0 0 0 0.784314 0 0 0 1 0"/>
                                <feBlend mode="normal" in2="BackgroundImageFix" result="effect1_dropShadow_1_1104"/>
                                <feBlend mode="normal" in="SourceGraphic" in2="effect1_dropShadow_1_1104" result="shape"/>
                                </filter>
                                <linearGradient id="paint0_linear_1_1104" x1="54" y1="5" x2="54" y2="105" gradientUnits="userSpaceOnUse">
                                <stop stop-color="white"/>
                                <stop offset="1" stop-color="#D9D9D9" stop-opacity="0"/>
                                </linearGradient>
                                </defs>
                                </svg>