<svg width="100" height="100" viewBox="0 0 100 100" fill="none" xmlns="http://www.w3.org/2000/svg">
<path d="M50 12.5C41.7515 12.5259 33.7843 15.5008 27.5375 20.8875C22.75 25.0125 19.2812 30.3875 18.3875 35.7812C7.9125 38.0937 0 47.2187 0 58.2375C0 71.0375 10.675 81.25 23.6312 81.25H79.2938C90.6375 81.25 100 72.3125 100 61.0812C100 50.8562 92.2375 42.525 82.2875 41.1187C80.7688 24.9938 66.8125 12.5 50 12.5ZM64.7125 44.6625C65.0031 44.953 65.2335 45.298 65.3908 45.6776C65.548 46.0572 65.6289 46.4641 65.6289 46.875C65.6289 47.2859 65.548 47.6928 65.3908 48.0724C65.2335 48.452 65.0031 48.797 64.7125 49.0875C64.422 49.3781 64.077 49.6085 63.6974 49.7658C63.3178 49.923 62.9109 50.0039 62.5 50.0039C62.0891 50.0039 61.6822 49.923 61.3026 49.7658C60.923 49.6085 60.578 49.3781 60.2875 49.0875L53.125 41.9187V65.625C53.125 66.4538 52.7958 67.2487 52.2097 67.8347C51.6237 68.4208 50.8288 68.75 50 68.75C49.1712 68.75 48.3763 68.4208 47.7903 67.8347C47.2042 67.2487 46.875 66.4538 46.875 65.625V41.9187L39.7125 49.0875C39.1257 49.6743 38.3298 50.0039 37.5 50.0039C36.6702 50.0039 35.8743 49.6743 35.2875 49.0875C34.7007 48.5007 34.3711 47.7048 34.3711 46.875C34.3711 46.0452 34.7007 45.2493 35.2875 44.6625L47.7875 32.1625C48.0778 31.8715 48.4226 31.6406 48.8023 31.483C49.1819 31.3255 49.589 31.2444 50 31.2444C50.411 31.2444 50.8181 31.3255 51.1977 31.483C51.5774 31.6406 51.9222 31.8715 52.2125 32.1625L64.7125 44.6625Z" fill="#310F4C"/>
</svg>
