<svg width="228" height="24" viewBox="0 0 228 24" fill="none" xmlns="http://www.w3.org/2000/svg">
<path d="M24 12H20L17 21L11 3L8 12H4" stroke="#FECD32" stroke-width="5" stroke-linecap="round" stroke-linejoin="round"/>
<path d="M44 12H40L37 21L31 3L28 12H24" stroke="#FECD32" stroke-width="5" stroke-linecap="round" stroke-linejoin="round"/>
<path d="M64 12H60L57 21L51 3L48 12H44" stroke="#FECD32" stroke-width="5" stroke-linecap="round" stroke-linejoin="round"/>
<path d="M84 12H80L77 21L71 3L68 12H64" stroke="#FECD32" stroke-width="5" stroke-linecap="round" stroke-linejoin="round"/>
<path d="M104 12H100L97 21L91 3L88 12H84" stroke="#FECD32" stroke-width="5" stroke-linecap="round" stroke-linejoin="round"/>
<path d="M124 12H120L117 21L111 3L108 12H104" stroke="#FECD32" stroke-width="5" stroke-linecap="round" stroke-linejoin="round"/>
<path d="M144 12H140L137 21L131 3L128 12H124" stroke="#FECD32" stroke-width="5" stroke-linecap="round" stroke-linejoin="round"/>
<path d="M164 12H160L157 21L151 3L148 12H144" stroke="#FECD32" stroke-width="5" stroke-linecap="round" stroke-linejoin="round"/>
<path d="M184 12H180L177 21L171 3L168 12H164" stroke="#FECD32" stroke-width="5" stroke-linecap="round" stroke-linejoin="round"/>
<path d="M204 12H200L197 21L191 3L188 12H184" stroke="#FECD32" stroke-width="5" stroke-linecap="round" stroke-linejoin="round"/>
<path d="M224 12H220L217 21L211 3L208 12H204" stroke="#FECD32" stroke-width="5" stroke-linecap="round" stroke-linejoin="round"/>
</svg>
