<svg width="130" height="130" viewBox="0 0 130 130" fill="none" xmlns="http://www.w3.org/2000/svg">
<g clip-path="url(#clip0_366_1664)">
<path fill-rule="evenodd" clip-rule="evenodd" d="M74.6585 62.4531C76.0551 59.2021 76.6432 56.3541 76.9556 54.1349C79.8591 32.9008 62.9526 21.2644 44.9803 15.928C40.1657 14.4956 32.3006 13.9277 26.3649 16.0815C22.1934 17.5931 18.9591 20.4158 18.1506 25.0751C17.2501 30.1513 19.731 35.4548 23.7371 40.2389C29.5257 47.163 38.4751 53.0226 44.0983 55.567C50.5852 58.4999 61.0783 61.9437 71.7367 63.9618C69.9542 67.3497 67.2528 71.0998 63.0629 74.9712C61.2069 76.6986 58.6526 78.1753 55.7491 79.3628C53.5623 75.1165 50.4383 71.113 46.3771 67.5807C42.959 64.6162 34.616 59.7398 27.2287 58.2432C21.9546 57.179 17.1767 57.8642 14.6407 61.6737C11.4983 66.4092 12.6008 70.8227 15.6697 74.5145C19.9882 79.7151 28.3496 83.4102 33.2929 84.3217C39.0448 85.3791 47.5714 84.3982 54.7199 81.8576C61.3539 96.5947 56.5209 113.929 40.9743 123.463C40.5149 123.751 40.3679 124.367 40.6435 124.837C40.9376 125.308 41.5624 125.455 42.0218 125.166C58.4688 115.076 63.6141 96.736 56.6127 81.1336C59.6999 79.8623 62.438 78.2826 64.4227 76.4385C69.0352 72.171 71.9387 68.0377 73.7948 64.3337C75.7978 64.6777 77.8009 64.9664 79.7856 65.1873C88.6982 66.1842 97.0595 65.772 102.554 62.9046C115.252 56.28 118.781 43.1562 116.373 30.3455C113.984 17.6582 105.77 5.32511 95.13 0.102307C94.6339 -0.140815 94.0275 0.0642701 93.7886 0.559702C93.5497 1.05532 93.7518 1.65495 94.248 1.89789C104.373 6.86764 112.147 18.6417 114.407 30.7142C116.649 42.6635 113.47 54.9521 101.635 61.1312C96.3979 63.853 88.4778 64.1461 80.0062 63.1997C78.242 63.0027 76.4594 62.7506 74.6585 62.4531ZM53.8562 80.0852C51.7796 76.1265 48.8579 72.3907 45.0539 69.0907C41.8013 66.2682 33.8809 61.6285 26.8243 60.2034C22.4507 59.3197 18.4078 59.6168 16.3129 62.7803C13.7402 66.6387 14.7142 70.2297 17.2134 73.2377C21.2195 78.0867 29.0479 81.505 33.6605 82.3547C39.0632 83.3513 47.112 82.4558 53.8562 80.0852ZM72.6371 62.0966C74.0704 58.8709 74.6585 56.0479 74.9709 53.8639C77.7274 33.7311 61.4458 22.9049 44.4107 17.8452C39.9269 16.5091 32.5946 15.9526 27.0449 17.9616C23.5717 19.2251 20.7968 21.5274 20.1169 25.4219C19.3083 29.9703 21.6789 34.6683 25.2623 38.9551C30.8488 45.6374 39.5042 51.2893 44.9252 53.745C51.4122 56.6782 61.9603 60.1292 72.6371 62.0966Z" fill="#9669BA"/>
<path fill-rule="evenodd" clip-rule="evenodd" d="M42.2278 123.752C42.5954 122.8 43.6428 120.056 43.7898 119.638C44.1941 118.461 44.2309 117.815 44.1942 117.153C44.1574 116.622 44.0471 116.076 44.1023 115.076C44.139 114.525 43.698 114.057 43.1467 114.029C42.5954 114.001 42.1359 114.428 42.0992 114.979C42.0624 115.885 42.1176 116.46 42.1727 116.964C42.2279 117.544 42.2462 117.996 41.8971 118.987C41.7317 119.47 40.5188 122.06 40.2064 123.346C40.041 124.017 40.1329 124.52 40.2615 124.741C40.4453 125.057 40.7762 125.354 41.2907 125.558C41.9523 125.818 43.0548 125.968 44.286 126.165C45.4438 126.347 46.7484 126.578 47.8878 127.067C48.8434 127.484 49.6704 128.087 50.0747 129.09C50.2768 129.603 50.8465 129.857 51.361 129.655C51.8756 129.452 52.1328 128.87 51.9306 128.357C51.3426 126.839 50.1299 125.864 48.6781 125.233C47.3917 124.676 45.9216 124.395 44.5985 124.189C43.8083 124.063 43.0731 123.965 42.5035 123.835C42.4116 123.815 42.3197 123.783 42.2278 123.752Z" fill="#9669BA"/>
</g>
<defs>
<clipPath id="clip0_366_1664">
<rect width="130" height="130" fill="white"/>
</clipPath>
</defs>
</svg>
