<svg width="80" height="80" viewBox="0 0 80 80" fill="none" xmlns="http://www.w3.org/2000/svg">
<rect width="80" height="80" rx="40" fill="white"/>
<path d="M40.0002 34.7929C37.133 34.7929 34.7932 37.1328 34.7932 39.9999C34.7932 42.8671 37.133 45.207 40.0002 45.207C42.8674 45.207 45.2072 42.8671 45.2072 39.9999C45.2072 37.1328 42.8674 34.7929 40.0002 34.7929ZM55.6174 39.9999C55.6174 37.8437 55.6369 35.707 55.5158 33.5546C55.3947 31.0546 54.8244 28.8359 52.9963 27.0078C51.1642 25.1757 48.9494 24.6093 46.4494 24.4882C44.2932 24.3671 42.1564 24.3867 40.0041 24.3867C37.8478 24.3867 35.7111 24.3671 33.5588 24.4882C31.0588 24.6093 28.84 25.1796 27.0119 27.0078C25.1799 28.8398 24.6135 31.0546 24.4924 33.5546C24.3713 35.7109 24.3908 37.8476 24.3908 39.9999C24.3908 42.1523 24.3713 44.2929 24.4924 46.4453C24.6135 48.9453 25.1838 51.164 27.0119 52.9921C28.8439 54.8242 31.0588 55.3906 33.5588 55.5117C35.715 55.6328 37.8517 55.6132 40.0041 55.6132C42.1603 55.6132 44.2971 55.6328 46.4494 55.5117C48.9494 55.3906 51.1682 54.8203 52.9963 52.9921C54.8283 51.1601 55.3947 48.9453 55.5158 46.4453C55.6408 44.2929 55.6174 42.1562 55.6174 39.9999ZM40.0002 48.0117C35.5666 48.0117 31.9885 44.4335 31.9885 39.9999C31.9885 35.5663 35.5666 31.9882 40.0002 31.9882C44.4338 31.9882 48.0119 35.5663 48.0119 39.9999C48.0119 44.4335 44.4338 48.0117 40.0002 48.0117ZM48.34 33.5312C47.3049 33.5312 46.4689 32.6953 46.4689 31.6601C46.4689 30.6249 47.3049 29.789 48.34 29.789C49.3752 29.789 50.2111 30.6249 50.2111 31.6601C50.2114 31.9059 50.1632 32.1493 50.0693 32.3765C49.9754 32.6036 49.8376 32.81 49.6638 32.9838C49.49 33.1577 49.2836 33.2955 49.0564 33.3894C48.8293 33.4833 48.5858 33.5315 48.34 33.5312Z" fill="#611E97"/>
</svg>
