<svg width="223" height="200" viewBox="0 0 223 200" fill="none" xmlns="http://www.w3.org/2000/svg">
    <g filter="url(#filter0_dd_1_1012)">
    <path d="M115.266 51.3467C121.327 51.3467 126.286 46.3875 126.286 40.3263C126.286 34.2651 121.327 29.3059 115.266 29.3059C109.204 29.3059 104.245 34.2651 104.245 40.3263C104.245 46.3875 109.204 51.3467 115.266 51.3467Z" stroke="#9669BA" stroke-width="1.66042" stroke-linecap="round" stroke-linejoin="round"/>
    <path d="M112.147 43.4452L118.384 37.2076" stroke="#9669BA" stroke-width="1.66042" stroke-linecap="round" stroke-linejoin="round"/>
    <path d="M118.384 43.4452L112.147 37.2076" stroke="#9669BA" stroke-width="1.66042" stroke-linecap="round" stroke-linejoin="round"/>
    </g>
    <g filter="url(#filter1_dd_1_1012)">
    <path d="M45.2306 51.0714C43.9853 51.0714 42.6739 50.7739 41.3184 50.2008C39.9959 49.6388 38.6625 48.8674 37.3621 47.9306C36.0727 46.9829 34.8274 45.9249 33.6482 44.7678C32.48 43.5886 31.4221 42.3433 30.4853 41.0649C29.5376 39.7425 28.7772 38.42 28.2372 37.1416C27.6641 35.7751 27.3776 34.4527 27.3776 33.2074C27.3776 32.3478 27.5318 31.5323 27.8294 30.7718C28.138 29.9894 28.6339 29.2621 29.3061 28.6339C30.1547 27.7963 31.1245 27.3776 32.1604 27.3776C32.5902 27.3776 33.031 27.4767 33.4057 27.6531C33.8355 27.8514 34.1992 28.149 34.4637 28.5457L37.0204 32.1494C37.2518 32.469 37.4282 32.7776 37.5494 33.0861C37.6927 33.4167 37.7698 33.7474 37.7698 34.067C37.7698 34.4857 37.6486 34.8935 37.4172 35.2792C37.2518 35.5767 36.9984 35.8963 36.6788 36.2159L35.9294 36.9984C35.9404 37.0314 35.9514 37.0535 35.9625 37.0755C36.0947 37.307 36.3592 37.7037 36.8661 38.2988C37.4061 38.9159 37.9131 39.478 38.42 39.9959C39.0702 40.6351 39.6102 41.1421 40.1172 41.5608C40.7453 42.0898 41.1531 42.3543 41.3955 42.4755L41.3735 42.5306L42.178 41.7372C42.5196 41.3955 42.8502 41.1421 43.1698 40.9767C43.7759 40.6021 44.5474 40.5359 45.3188 40.8555C45.6053 40.9767 45.9139 41.1421 46.2445 41.3735L49.9033 43.9743C50.311 44.2498 50.6086 44.6025 50.7849 45.0212C50.9502 45.44 51.0274 45.8257 51.0274 46.2114C51.0274 46.7404 50.9061 47.2694 50.6747 47.7653C50.4433 48.2612 50.1567 48.691 49.7931 49.0878C49.1649 49.7821 48.4816 50.278 47.6882 50.5976C46.9278 50.9061 46.1012 51.0714 45.2306 51.0714ZM32.1604 29.0306C31.5543 29.0306 30.9923 29.2951 30.4523 29.8241C29.9453 30.298 29.5927 30.8159 29.3723 31.378C29.1408 31.951 29.0306 32.5572 29.0306 33.2074C29.0306 34.2323 29.2731 35.3453 29.758 36.4914C30.2539 37.6596 30.9482 38.8718 31.8298 40.0841C32.7114 41.2963 33.7143 42.4755 34.8163 43.5886C35.9184 44.6796 37.1086 45.6935 38.3318 46.5861C39.5221 47.4567 40.7453 48.1621 41.9576 48.669C43.8421 49.4735 45.6053 49.6608 47.06 49.0547C47.6221 48.8233 48.118 48.4706 48.5698 47.9637C48.8233 47.6882 49.0216 47.3906 49.187 47.038C49.3192 46.7625 49.3853 46.4759 49.3853 46.1894C49.3853 46.0131 49.3523 45.8367 49.2641 45.6384C49.231 45.5723 49.1649 45.451 48.9555 45.3078L45.2967 42.707C45.0763 42.5527 44.878 42.4425 44.6906 42.3653C44.4482 42.2661 44.349 42.167 43.9743 42.3984C43.7539 42.5086 43.5555 42.6739 43.3351 42.8943L42.4976 43.7208C42.0678 44.1396 41.4065 44.2388 40.8996 44.0514L40.6021 43.9192C40.1502 43.6767 39.6212 43.3021 39.0372 42.8061C38.5082 42.3543 37.9351 41.8253 37.2408 41.1421C36.7008 40.591 36.1608 40.007 35.5988 39.3567C35.0808 38.7506 34.7061 38.2327 34.4747 37.8029L34.3425 37.4723C34.2763 37.2188 34.2543 37.0755 34.2543 36.9212C34.2543 36.5245 34.3976 36.1718 34.6731 35.8963L35.4996 35.0367C35.72 34.8163 35.8853 34.607 35.9955 34.4196C36.0837 34.2763 36.1167 34.1551 36.1167 34.0449C36.1167 33.9567 36.0837 33.8245 36.0286 33.6923C35.9514 33.5159 35.8302 33.3176 35.6759 33.1082L33.1192 29.4935C33.009 29.3392 32.8767 29.229 32.7114 29.1518C32.5351 29.0747 32.3478 29.0306 32.1604 29.0306ZM41.3735 42.5416L41.1972 43.291L41.4947 42.5196C41.4396 42.5086 41.3955 42.5196 41.3735 42.5416Z" fill="#9669BA"/>
    </g>
    <g filter="url(#filter2_dd_1_1012)">
    <path d="M174.004 54.3773C173.607 54.3773 173.222 54.2782 172.891 54.0798C172.153 53.65 171.734 52.7904 171.734 51.7214V39.2023C171.734 36.8549 173.64 34.9484 175.988 34.9484H184.562C186.909 34.9484 188.816 36.8549 188.816 39.2023V51.7214C188.816 52.7904 188.397 53.639 187.658 54.0798C186.92 54.5096 185.972 54.4655 185.036 53.9475L180.705 51.5341C180.495 51.4129 180.054 51.4129 179.845 51.5341L175.514 53.9475C175.007 54.2341 174.489 54.3773 174.004 54.3773ZM175.999 36.6125C174.566 36.6125 173.398 37.7806 173.398 39.2133V51.7325C173.398 52.1843 173.53 52.5369 173.74 52.6582C173.949 52.7794 174.324 52.7243 174.721 52.5039L179.052 50.0904C179.757 49.7047 180.815 49.7047 181.52 50.0904L185.851 52.5039C186.248 52.7243 186.612 52.7794 186.832 52.6582C187.041 52.5369 187.174 52.1843 187.174 51.7325V39.2133C187.174 37.7806 186.005 36.6125 184.573 36.6125H175.999Z" fill="#9669BA"/>
    <path d="M186.556 54.3773C186.071 54.3773 185.564 54.234 185.046 53.9585L180.715 51.545C180.506 51.4348 180.054 51.4348 179.845 51.545L175.525 53.9585C174.588 54.4764 173.629 54.5205 172.902 54.0907C172.163 53.6609 171.745 52.8013 171.745 51.7434V39.2242C171.745 36.8769 173.651 34.9703 175.999 34.9703H184.573C186.92 34.9703 188.826 36.8769 188.826 39.2242V51.7434C188.826 52.8013 188.408 53.6609 187.669 54.0907C187.339 54.2781 186.964 54.3773 186.556 54.3773ZM180.286 49.8038C180.726 49.8038 181.156 49.903 181.52 50.1013L185.851 52.5148C186.248 52.7352 186.622 52.7903 186.832 52.6581C187.041 52.5369 187.173 52.1842 187.173 51.7324V39.2132C187.173 37.7805 186.005 36.6124 184.573 36.6124H175.999C174.566 36.6124 173.398 37.7805 173.398 39.2132V51.7324C173.398 52.1842 173.53 52.5369 173.739 52.6581C173.949 52.7793 174.324 52.7242 174.72 52.5038L179.051 50.0903C179.404 49.903 179.845 49.8038 180.286 49.8038Z" fill="#9669BA"/>
    <path d="M193.168 50.1014C192.684 50.1014 192.177 49.9581 191.659 49.6826L187.592 47.4124C187.328 47.2691 187.173 46.9936 187.173 46.6961V39.2242C187.173 37.7916 186.005 36.6234 184.573 36.6234H179.184C178.732 36.6234 178.357 36.2487 178.357 35.7969V34.9483C178.357 32.601 180.263 30.6945 182.611 30.6945H191.185C193.532 30.6945 195.439 32.601 195.439 34.9483V47.4675C195.439 48.5255 195.02 49.385 194.281 49.8148C193.951 50.0022 193.576 50.1014 193.168 50.1014ZM188.826 46.2001L192.463 48.2389C192.86 48.4593 193.224 48.5144 193.444 48.3822C193.664 48.25 193.786 47.9083 193.786 47.4565V34.9373C193.786 33.5046 192.617 32.3365 191.185 32.3365H182.611C181.178 32.3365 180.01 33.5046 180.01 34.9373V34.9594H184.573C186.92 34.9594 188.826 36.8659 188.826 39.2132V46.2001V46.2001Z" fill="#9669BA"/>
    </g>
    <g filter="url(#filter3_dd_1_1012)">
    <path d="M42.5306 110.581H35.9184C29.9343 110.581 27.3776 108.025 27.3776 102.041V95.4284C27.3776 89.4443 29.9343 86.8876 35.9184 86.8876H38.1225C38.5743 86.8876 38.949 87.2623 38.949 87.7141C38.949 88.1659 38.5743 88.5406 38.1225 88.5406H35.9184C30.838 88.5406 29.0306 90.348 29.0306 95.4284V102.041C29.0306 107.121 30.838 108.928 35.9184 108.928H42.5306C47.611 108.928 49.4184 107.121 49.4184 102.041V99.8366C49.4184 99.3847 49.7931 99.01 50.2449 99.01C50.6967 99.01 51.0714 99.3847 51.0714 99.8366V102.041C51.0714 108.025 48.5147 110.581 42.5306 110.581Z" fill="#9669BA"/>
    <path d="M35.3674 105.005C34.6951 105.005 34.078 104.763 33.6261 104.322C33.0861 103.782 32.8547 102.999 32.9759 102.173L33.4498 98.8557C33.538 98.2165 33.9568 97.39 34.4086 96.9381L43.0927 88.254C45.2857 86.061 47.5119 86.061 49.7049 88.254C50.9061 89.4553 51.4461 90.6785 51.3359 91.9018C51.2368 92.8936 50.7078 93.8634 49.7049 94.8553L41.0208 103.539C40.569 103.991 39.7425 104.41 39.1033 104.498L35.7861 104.972C35.6429 105.005 35.4996 105.005 35.3674 105.005ZM44.2608 89.4222L35.5768 98.1063C35.3674 98.3157 35.1249 98.8006 35.0808 99.0871L34.607 102.404C34.5629 102.724 34.629 102.988 34.7943 103.154C34.9596 103.319 35.2241 103.385 35.5437 103.341L38.8608 102.867C39.1474 102.823 39.6433 102.581 39.8417 102.371L48.5257 93.6871C49.2421 92.9708 49.6168 92.3316 49.6719 91.7365C49.738 91.0202 49.3633 90.2598 48.5257 89.4112C46.7625 87.6479 45.5502 88.1438 44.2608 89.4222Z" fill="#9669BA"/>
    <path d="M47.8755 96.343C47.7984 96.343 47.7212 96.332 47.6551 96.31C44.7567 95.4945 42.4535 93.1912 41.638 90.2928C41.5167 89.852 41.7702 89.4002 42.211 89.2679C42.6518 89.1467 43.1037 89.4002 43.2249 89.841C43.8861 92.1883 45.7486 94.0508 48.0959 94.712C48.5367 94.8332 48.7902 95.2961 48.669 95.7369C48.5698 96.1116 48.2392 96.343 47.8755 96.343Z" fill="#9669BA"/>
    </g>
    <g filter="url(#filter4_dd_1_1012)">
    <path d="M125.184 92.9267C125.162 92.9267 125.129 92.9267 125.096 92.9267C119.266 92.3427 113.447 92.1223 107.683 92.7063L105.435 92.9267C104.972 92.9708 104.565 92.6402 104.521 92.1774C104.477 91.7145 104.807 91.3178 105.259 91.2737L107.507 91.0533C113.37 90.4582 119.31 90.6896 125.261 91.2737C125.713 91.3178 126.043 91.7255 125.999 92.1774C125.966 92.6071 125.603 92.9267 125.184 92.9267Z" fill="#9669BA"/>
    <path d="M111.408 91.8137C111.364 91.8137 111.32 91.8137 111.265 91.8027C110.824 91.7255 110.516 91.2957 110.593 90.8549L110.835 89.4112C111.012 88.3533 111.254 86.8876 113.822 86.8876H116.709C119.288 86.8876 119.53 88.4084 119.696 89.4223L119.938 90.8549C120.015 91.3068 119.707 91.7366 119.266 91.8027C118.814 91.8798 118.384 91.5712 118.318 91.1304L118.076 89.6978C117.921 88.739 117.888 88.5517 116.72 88.5517H113.833C112.665 88.5517 112.643 88.7059 112.477 89.6868L112.224 91.1194C112.158 91.5272 111.805 91.8137 111.408 91.8137Z" fill="#9669BA"/>
    <path d="M118.803 110.581H111.728C107.882 110.581 107.728 108.455 107.606 106.735L106.89 95.6378C106.857 95.1859 107.21 94.7892 107.661 94.7561C108.124 94.7341 108.51 95.0757 108.543 95.5276L109.259 106.625C109.381 108.3 109.425 108.928 111.728 108.928H118.803C121.117 108.928 121.161 108.3 121.272 106.625L121.988 95.5276C122.021 95.0757 122.418 94.7341 122.87 94.7561C123.321 94.7892 123.674 95.1749 123.641 95.6378L122.925 106.735C122.803 108.455 122.649 110.581 118.803 110.581Z" fill="#9669BA"/>
    <path d="M117.095 104.52H113.425C112.973 104.52 112.599 104.145 112.599 103.694C112.599 103.242 112.973 102.867 113.425 102.867H117.095C117.547 102.867 117.921 103.242 117.921 103.694C117.921 104.145 117.547 104.52 117.095 104.52Z" fill="#9669BA"/>
    <path d="M118.021 100.112H112.51C112.059 100.112 111.684 99.7375 111.684 99.2856C111.684 98.8338 112.059 98.4591 112.51 98.4591H118.021C118.472 98.4591 118.847 98.8338 118.847 99.2856C118.847 99.7375 118.472 100.112 118.021 100.112Z" fill="#9669BA"/>
    </g>
    <g filter="url(#filter5_dd_1_1012)">
    <path d="M189.972 110.581H177.211C174.191 110.581 171.745 108.124 171.745 105.104V96.9382C171.745 95.4394 172.67 93.5549 173.861 92.6292L179.801 88.0007C181.586 86.6121 184.44 86.546 186.292 87.8464L193.102 92.6182C194.414 93.5329 195.439 95.4945 195.439 97.0925V105.115C195.439 108.124 192.992 110.581 189.972 110.581ZM180.815 89.3011L174.875 93.9296C174.092 94.5468 173.398 95.9464 173.398 96.9382V105.104C173.398 107.209 175.106 108.928 177.211 108.928H189.972C192.077 108.928 193.786 107.22 193.786 105.115V97.0925C193.786 96.0345 193.025 94.5688 192.155 93.9737L185.344 89.2019C184.088 88.3202 182.016 88.3643 180.815 89.3011Z" fill="#9669BA"/>
    <path d="M183.592 106.173C183.14 106.173 182.765 105.799 182.765 105.347V102.041C182.765 101.589 183.14 101.214 183.592 101.214C184.044 101.214 184.418 101.589 184.418 102.041V105.347C184.418 105.799 184.044 106.173 183.592 106.173Z" fill="#9669BA"/>
    </g>
    <g filter="url(#filter6_dd_1_1012)">
    <path d="M39.2245 173.288C38.8829 173.288 38.5523 173.244 38.2767 173.144C34.067 171.701 27.3776 166.576 27.3776 159.005C27.3776 155.148 30.4963 152.018 34.3314 152.018C36.1939 152.018 37.9351 152.746 39.2245 154.046C40.5139 152.746 42.2551 152.018 44.1176 152.018C47.9527 152.018 51.0714 155.159 51.0714 159.005C51.0714 166.587 44.3821 171.701 40.1723 173.144C39.8967 173.244 39.5661 173.288 39.2245 173.288ZM34.3314 153.671C31.411 153.671 29.0306 156.063 29.0306 159.005C29.0306 166.532 36.271 170.72 38.8167 171.591C39.0151 171.657 39.4449 171.657 39.6433 171.591C42.178 170.72 49.4294 166.543 49.4294 159.005C49.4294 156.063 47.049 153.671 44.1286 153.671C42.4535 153.671 40.8996 154.454 39.8967 155.809C39.5882 156.228 38.8829 156.228 38.5743 155.809C37.5494 154.443 36.0065 153.671 34.3314 153.671Z" fill="#9669BA"/>
    </g>
    <g filter="url(#filter7_dd_1_1012)">
    <path d="M113.838 171.911H116.603C117.657 171.911 118.337 171.165 118.139 170.254L117.689 168.268H112.752L112.302 170.254C112.105 171.11 112.851 171.911 113.838 171.911Z" stroke="#9669BA" stroke-width="1.66042" stroke-linecap="round" stroke-linejoin="round"/>
    <path d="M117.689 168.257L119.587 166.567C120.651 165.624 120.695 164.966 119.85 163.901L116.504 159.655C115.802 158.767 114.65 158.767 113.948 159.655L110.601 163.901C109.756 164.966 109.756 165.657 110.865 166.567L112.763 168.257" stroke="#9669BA" stroke-width="1.66042" stroke-linecap="round" stroke-linejoin="round"/>
    <path d="M115.22 159.425V162.201" stroke="#9669BA" stroke-width="1.66042" stroke-linecap="round" stroke-linejoin="round"/>
    <path d="M115.783 152.711H114.686C114.082 152.711 113.588 152.217 113.588 151.613V150.516C113.588 149.913 114.082 149.419 114.686 149.419H115.783C116.386 149.419 116.88 149.913 116.88 150.516V151.613C116.88 152.217 116.386 152.711 115.783 152.711Z" stroke="#9669BA" stroke-width="1.66042" stroke-linecap="round" stroke-linejoin="round"/>
    <path d="M105.634 162.771H106.731C107.334 162.771 107.828 162.278 107.828 161.674V160.577C107.828 159.974 107.334 159.48 106.731 159.48H105.634C105.03 159.48 104.537 159.974 104.537 160.577V161.674C104.537 162.278 105.03 162.771 105.634 162.771Z" stroke="#9669BA" stroke-width="1.66042" stroke-linecap="round" stroke-linejoin="round"/>
    <path d="M124.791 162.771H123.694C123.091 162.771 122.597 162.278 122.597 161.674V160.577C122.597 159.974 123.091 159.48 123.694 159.48H124.791C125.395 159.48 125.888 159.974 125.888 160.577V161.674C125.888 162.278 125.395 162.771 124.791 162.771Z" stroke="#9669BA" stroke-width="1.66042" stroke-linecap="round" stroke-linejoin="round"/>
    <path d="M113.588 151.131C109.408 151.624 106.16 155.168 106.16 159.48" stroke="#9669BA" stroke-width="1.66042" stroke-linecap="round" stroke-linejoin="round"/>
    <path d="M124.264 159.48C124.264 155.179 121.039 151.646 116.881 151.131" stroke="#9669BA" stroke-width="1.66042" stroke-linecap="round" stroke-linejoin="round"/>
    </g>
    <g filter="url(#filter8_dd_1_1012)">
    <path d="M172.564 157.099V154.905C172.564 151.613 174.759 149.419 178.05 149.419H189.022C192.313 149.419 194.507 151.613 194.507 154.905V157.099" stroke="#9669BA" stroke-width="1.66042" stroke-miterlimit="10" stroke-linecap="round" stroke-linejoin="round"/>
    <path d="M172.564 163.682V165.876C172.564 169.168 174.759 171.362 178.05 171.362H189.022C192.313 171.362 194.507 169.168 194.507 165.876V163.682" stroke="#9669BA" stroke-width="1.66042" stroke-miterlimit="10" stroke-linecap="round" stroke-linejoin="round"/>
    <path d="M177.718 157.384L183.533 160.753L189.304 157.406" stroke="#9669BA" stroke-width="1.66042" stroke-linecap="round" stroke-linejoin="round"/>
    <path d="M183.532 166.721V160.742" stroke="#9669BA" stroke-width="1.66042" stroke-linecap="round" stroke-linejoin="round"/>
    <path d="M182.176 154.126L178.665 156.079C177.875 156.518 177.216 157.626 177.216 158.536V162.256C177.216 163.166 177.864 164.274 178.665 164.713L182.176 166.666C182.922 167.083 184.15 167.083 184.907 166.666L188.418 164.713C189.208 164.274 189.867 163.166 189.867 162.256V158.536C189.867 157.626 189.219 156.518 188.418 156.079L184.907 154.126C184.15 153.698 182.922 153.698 182.176 154.126Z" stroke="#9669BA" stroke-width="1.66042" stroke-linecap="round" stroke-linejoin="round"/>
    </g>
    <defs>
    <filter id="filter0_dd_1_1012" x="75.4743" y="0.535244" width="79.5823" height="79.5823" filterUnits="userSpaceOnUse" color-interpolation-filters="sRGB">
    <feFlood flood-opacity="0" result="BackgroundImageFix"/>
    <feColorMatrix in="SourceAlpha" type="matrix" values="0 0 0 0 0 0 0 0 0 0 0 0 0 0 0 0 0 0 127 0" result="hardAlpha"/>
    <feOffset/>
    <feGaussianBlur stdDeviation="13.2833"/>
    <feComposite in2="hardAlpha" operator="out"/>
    <feColorMatrix type="matrix" values="0 0 0 0 0.729412 0 0 0 0 0.407843 0 0 0 0 0.784314 0 0 0 0.8 0"/>
    <feBlend mode="normal" in2="BackgroundImageFix" result="effect1_dropShadow_1_1012"/>
    <feColorMatrix in="SourceAlpha" type="matrix" values="0 0 0 0 0 0 0 0 0 0 0 0 0 0 0 0 0 0 127 0" result="hardAlpha"/>
    <feOffset/>
    <feGaussianBlur stdDeviation="13.2833"/>
    <feComposite in2="hardAlpha" operator="out"/>
    <feColorMatrix type="matrix" values="0 0 0 0 0.729412 0 0 0 0 0.407843 0 0 0 0 0.784314 0 0 0 0.5 0"/>
    <feBlend mode="normal" in2="effect1_dropShadow_1_1012" result="effect2_dropShadow_1_1012"/>
    <feBlend mode="normal" in="SourceGraphic" in2="effect2_dropShadow_1_1012" result="shape"/>
    </filter>
    <filter id="filter1_dd_1_1012" x="-0.566685" y="-0.566685" width="79.5823" height="79.5823" filterUnits="userSpaceOnUse" color-interpolation-filters="sRGB">
    <feFlood flood-opacity="0" result="BackgroundImageFix"/>
    <feColorMatrix in="SourceAlpha" type="matrix" values="0 0 0 0 0 0 0 0 0 0 0 0 0 0 0 0 0 0 127 0" result="hardAlpha"/>
    <feOffset/>
    <feGaussianBlur stdDeviation="13.2833"/>
    <feComposite in2="hardAlpha" operator="out"/>
    <feColorMatrix type="matrix" values="0 0 0 0 0.729412 0 0 0 0 0.407843 0 0 0 0 0.784314 0 0 0 0.8 0"/>
    <feBlend mode="normal" in2="BackgroundImageFix" result="effect1_dropShadow_1_1012"/>
    <feColorMatrix in="SourceAlpha" type="matrix" values="0 0 0 0 0 0 0 0 0 0 0 0 0 0 0 0 0 0 127 0" result="hardAlpha"/>
    <feOffset/>
    <feGaussianBlur stdDeviation="13.2833"/>
    <feComposite in2="hardAlpha" operator="out"/>
    <feColorMatrix type="matrix" values="0 0 0 0 0.729412 0 0 0 0 0.407843 0 0 0 0 0.784314 0 0 0 0.5 0"/>
    <feBlend mode="normal" in2="effect1_dropShadow_1_1012" result="effect2_dropShadow_1_1012"/>
    <feBlend mode="normal" in="SourceGraphic" in2="effect2_dropShadow_1_1012" result="shape"/>
    </filter>
    <filter id="filter2_dd_1_1012" x="143.801" y="2.73922" width="79.5823" height="79.5823" filterUnits="userSpaceOnUse" color-interpolation-filters="sRGB">
    <feFlood flood-opacity="0" result="BackgroundImageFix"/>
    <feColorMatrix in="SourceAlpha" type="matrix" values="0 0 0 0 0 0 0 0 0 0 0 0 0 0 0 0 0 0 127 0" result="hardAlpha"/>
    <feOffset/>
    <feGaussianBlur stdDeviation="13.2833"/>
    <feComposite in2="hardAlpha" operator="out"/>
    <feColorMatrix type="matrix" values="0 0 0 0 0.729412 0 0 0 0 0.407843 0 0 0 0 0.784314 0 0 0 0.8 0"/>
    <feBlend mode="normal" in2="BackgroundImageFix" result="effect1_dropShadow_1_1012"/>
    <feColorMatrix in="SourceAlpha" type="matrix" values="0 0 0 0 0 0 0 0 0 0 0 0 0 0 0 0 0 0 127 0" result="hardAlpha"/>
    <feOffset/>
    <feGaussianBlur stdDeviation="13.2833"/>
    <feComposite in2="hardAlpha" operator="out"/>
    <feColorMatrix type="matrix" values="0 0 0 0 0.729412 0 0 0 0 0.407843 0 0 0 0 0.784314 0 0 0 0.5 0"/>
    <feBlend mode="normal" in2="effect1_dropShadow_1_1012" result="effect2_dropShadow_1_1012"/>
    <feBlend mode="normal" in="SourceGraphic" in2="effect2_dropShadow_1_1012" result="shape"/>
    </filter>
    <filter id="filter3_dd_1_1012" x="-0.566685" y="58.9433" width="79.5823" height="79.5823" filterUnits="userSpaceOnUse" color-interpolation-filters="sRGB">
    <feFlood flood-opacity="0" result="BackgroundImageFix"/>
    <feColorMatrix in="SourceAlpha" type="matrix" values="0 0 0 0 0 0 0 0 0 0 0 0 0 0 0 0 0 0 127 0" result="hardAlpha"/>
    <feOffset/>
    <feGaussianBlur stdDeviation="13.2833"/>
    <feComposite in2="hardAlpha" operator="out"/>
    <feColorMatrix type="matrix" values="0 0 0 0 0.729412 0 0 0 0 0.407843 0 0 0 0 0.784314 0 0 0 0.8 0"/>
    <feBlend mode="normal" in2="BackgroundImageFix" result="effect1_dropShadow_1_1012"/>
    <feColorMatrix in="SourceAlpha" type="matrix" values="0 0 0 0 0 0 0 0 0 0 0 0 0 0 0 0 0 0 127 0" result="hardAlpha"/>
    <feOffset/>
    <feGaussianBlur stdDeviation="13.2833"/>
    <feComposite in2="hardAlpha" operator="out"/>
    <feColorMatrix type="matrix" values="0 0 0 0 0.729412 0 0 0 0 0.407843 0 0 0 0 0.784314 0 0 0 0.5 0"/>
    <feBlend mode="normal" in2="effect1_dropShadow_1_1012" result="effect2_dropShadow_1_1012"/>
    <feBlend mode="normal" in="SourceGraphic" in2="effect2_dropShadow_1_1012" result="shape"/>
    </filter>
    <filter id="filter4_dd_1_1012" x="75.4743" y="58.9433" width="79.5823" height="79.5823" filterUnits="userSpaceOnUse" color-interpolation-filters="sRGB">
    <feFlood flood-opacity="0" result="BackgroundImageFix"/>
    <feColorMatrix in="SourceAlpha" type="matrix" values="0 0 0 0 0 0 0 0 0 0 0 0 0 0 0 0 0 0 127 0" result="hardAlpha"/>
    <feOffset/>
    <feGaussianBlur stdDeviation="13.2833"/>
    <feComposite in2="hardAlpha" operator="out"/>
    <feColorMatrix type="matrix" values="0 0 0 0 0.729412 0 0 0 0 0.407843 0 0 0 0 0.784314 0 0 0 0.8 0"/>
    <feBlend mode="normal" in2="BackgroundImageFix" result="effect1_dropShadow_1_1012"/>
    <feColorMatrix in="SourceAlpha" type="matrix" values="0 0 0 0 0 0 0 0 0 0 0 0 0 0 0 0 0 0 127 0" result="hardAlpha"/>
    <feOffset/>
    <feGaussianBlur stdDeviation="13.2833"/>
    <feComposite in2="hardAlpha" operator="out"/>
    <feColorMatrix type="matrix" values="0 0 0 0 0.729412 0 0 0 0 0.407843 0 0 0 0 0.784314 0 0 0 0.5 0"/>
    <feBlend mode="normal" in2="effect1_dropShadow_1_1012" result="effect2_dropShadow_1_1012"/>
    <feBlend mode="normal" in="SourceGraphic" in2="effect2_dropShadow_1_1012" result="shape"/>
    </filter>
    <filter id="filter5_dd_1_1012" x="143.801" y="58.9433" width="79.5823" height="79.5823" filterUnits="userSpaceOnUse" color-interpolation-filters="sRGB">
    <feFlood flood-opacity="0" result="BackgroundImageFix"/>
    <feColorMatrix in="SourceAlpha" type="matrix" values="0 0 0 0 0 0 0 0 0 0 0 0 0 0 0 0 0 0 127 0" result="hardAlpha"/>
    <feOffset/>
    <feGaussianBlur stdDeviation="13.2833"/>
    <feComposite in2="hardAlpha" operator="out"/>
    <feColorMatrix type="matrix" values="0 0 0 0 0.729412 0 0 0 0 0.407843 0 0 0 0 0.784314 0 0 0 0.8 0"/>
    <feBlend mode="normal" in2="BackgroundImageFix" result="effect1_dropShadow_1_1012"/>
    <feColorMatrix in="SourceAlpha" type="matrix" values="0 0 0 0 0 0 0 0 0 0 0 0 0 0 0 0 0 0 127 0" result="hardAlpha"/>
    <feOffset/>
    <feGaussianBlur stdDeviation="13.2833"/>
    <feComposite in2="hardAlpha" operator="out"/>
    <feColorMatrix type="matrix" values="0 0 0 0 0.729412 0 0 0 0 0.407843 0 0 0 0 0.784314 0 0 0 0.5 0"/>
    <feBlend mode="normal" in2="effect1_dropShadow_1_1012" result="effect2_dropShadow_1_1012"/>
    <feBlend mode="normal" in="SourceGraphic" in2="effect2_dropShadow_1_1012" result="shape"/>
    </filter>
    <filter id="filter6_dd_1_1012" x="-0.566685" y="122.862" width="79.5823" height="79.5823" filterUnits="userSpaceOnUse" color-interpolation-filters="sRGB">
    <feFlood flood-opacity="0" result="BackgroundImageFix"/>
    <feColorMatrix in="SourceAlpha" type="matrix" values="0 0 0 0 0 0 0 0 0 0 0 0 0 0 0 0 0 0 127 0" result="hardAlpha"/>
    <feOffset/>
    <feGaussianBlur stdDeviation="13.2833"/>
    <feComposite in2="hardAlpha" operator="out"/>
    <feColorMatrix type="matrix" values="0 0 0 0 0.729412 0 0 0 0 0.407843 0 0 0 0 0.784314 0 0 0 0.8 0"/>
    <feBlend mode="normal" in2="BackgroundImageFix" result="effect1_dropShadow_1_1012"/>
    <feColorMatrix in="SourceAlpha" type="matrix" values="0 0 0 0 0 0 0 0 0 0 0 0 0 0 0 0 0 0 127 0" result="hardAlpha"/>
    <feOffset/>
    <feGaussianBlur stdDeviation="13.2833"/>
    <feComposite in2="hardAlpha" operator="out"/>
    <feColorMatrix type="matrix" values="0 0 0 0 0.729412 0 0 0 0 0.407843 0 0 0 0 0.784314 0 0 0 0.5 0"/>
    <feBlend mode="normal" in2="effect1_dropShadow_1_1012" result="effect2_dropShadow_1_1012"/>
    <feBlend mode="normal" in="SourceGraphic" in2="effect2_dropShadow_1_1012" result="shape"/>
    </filter>
    <filter id="filter7_dd_1_1012" x="75.4743" y="120.658" width="79.4652" height="79.4652" filterUnits="userSpaceOnUse" color-interpolation-filters="sRGB">
    <feFlood flood-opacity="0" result="BackgroundImageFix"/>
    <feColorMatrix in="SourceAlpha" type="matrix" values="0 0 0 0 0 0 0 0 0 0 0 0 0 0 0 0 0 0 127 0" result="hardAlpha"/>
    <feOffset/>
    <feGaussianBlur stdDeviation="13.2833"/>
    <feComposite in2="hardAlpha" operator="out"/>
    <feColorMatrix type="matrix" values="0 0 0 0 0.729412 0 0 0 0 0.407843 0 0 0 0 0.784314 0 0 0 0.8 0"/>
    <feBlend mode="normal" in2="BackgroundImageFix" result="effect1_dropShadow_1_1012"/>
    <feColorMatrix in="SourceAlpha" type="matrix" values="0 0 0 0 0 0 0 0 0 0 0 0 0 0 0 0 0 0 127 0" result="hardAlpha"/>
    <feOffset/>
    <feGaussianBlur stdDeviation="13.2833"/>
    <feComposite in2="hardAlpha" operator="out"/>
    <feColorMatrix type="matrix" values="0 0 0 0 0.729412 0 0 0 0 0.407843 0 0 0 0 0.784314 0 0 0 0.5 0"/>
    <feBlend mode="normal" in2="effect1_dropShadow_1_1012" result="effect2_dropShadow_1_1012"/>
    <feBlend mode="normal" in="SourceGraphic" in2="effect2_dropShadow_1_1012" result="shape"/>
    </filter>
    <filter id="filter8_dd_1_1012" x="143.801" y="120.658" width="79.4652" height="79.4652" filterUnits="userSpaceOnUse" color-interpolation-filters="sRGB">
    <feFlood flood-opacity="0" result="BackgroundImageFix"/>
    <feColorMatrix in="SourceAlpha" type="matrix" values="0 0 0 0 0 0 0 0 0 0 0 0 0 0 0 0 0 0 127 0" result="hardAlpha"/>
    <feOffset/>
    <feGaussianBlur stdDeviation="13.2833"/>
    <feComposite in2="hardAlpha" operator="out"/>
    <feColorMatrix type="matrix" values="0 0 0 0 0.729412 0 0 0 0 0.407843 0 0 0 0 0.784314 0 0 0 0.8 0"/>
    <feBlend mode="normal" in2="BackgroundImageFix" result="effect1_dropShadow_1_1012"/>
    <feColorMatrix in="SourceAlpha" type="matrix" values="0 0 0 0 0 0 0 0 0 0 0 0 0 0 0 0 0 0 127 0" result="hardAlpha"/>
    <feOffset/>
    <feGaussianBlur stdDeviation="13.2833"/>
    <feComposite in2="hardAlpha" operator="out"/>
    <feColorMatrix type="matrix" values="0 0 0 0 0.729412 0 0 0 0 0.407843 0 0 0 0 0.784314 0 0 0 0.5 0"/>
    <feBlend mode="normal" in2="effect1_dropShadow_1_1012" result="effect2_dropShadow_1_1012"/>
    <feBlend mode="normal" in="SourceGraphic" in2="effect2_dropShadow_1_1012" result="shape"/>
    </filter>
    </defs>
</svg>