<svg width="18" height="19" viewBox="0 0 18 19" fill="none" xmlns="http://www.w3.org/2000/svg">
<path d="M1.49316 8.43801V7.70626C1.49316 3.97285 2.98653 2.47949 6.71993 2.47949H11.2C14.9334 2.47949 16.4268 3.97285 16.4268 7.70626V12.1863C16.4268 15.9198 14.9334 17.4131 11.2 17.4131H10.4533" stroke="white" stroke-width="1.5" stroke-linecap="round" stroke-linejoin="round"/>
<path d="M9.70703 9.19951L13.4479 5.45117H10.4537" stroke="white" stroke-width="1.5" stroke-linecap="round" stroke-linejoin="round"/>
<path d="M13.4473 5.45117V8.44536" stroke="white" stroke-width="1.5" stroke-linecap="round" stroke-linejoin="round"/>
<path d="M8.2133 13.0454V15.0614C8.2133 16.7415 7.54128 17.4135 5.86125 17.4135H3.84521C2.16518 17.4135 1.49316 16.7415 1.49316 15.0614V13.0454C1.49316 11.3654 2.16518 10.6934 3.84521 10.6934H5.86125C7.54128 10.6934 8.2133 11.3654 8.2133 13.0454Z" stroke="white" stroke-width="1.5" stroke-linecap="round" stroke-linejoin="round"/>
</svg>
