<svg width="130" height="130" viewBox="0 0 130 130" fill="none" xmlns="http://www.w3.org/2000/svg">
<g clip-path="url(#clip0_1_2195)">
<path fill-rule="evenodd" clip-rule="evenodd" d="M119.169 12.7096C115.756 27.3362 110.826 33.7913 104.853 35.9793C98.8799 38.172 92.1484 36.0954 85.4169 34.014C80.7712 32.5498 76.0308 31.056 71.6695 30.787C67.1186 30.5039 62.852 31.5464 59.1544 35.2176C58.3011 36.0989 57.5425 37.5288 57.0684 39.4348C56.3099 42.0209 55.8359 45.5404 55.6463 49.67C54.6982 65.3355 56.594 89.9924 54.3186 105.009C53.8445 108.461 53.0866 111.388 52.0437 113.542C51.0956 115.416 49.9581 116.682 48.4411 117.004C47.2086 117.267 45.7862 116.899 43.9848 115.899C40.9509 114.192 37.3483 110.71 32.7975 105.063C28.8155 100.12 25.4964 94.5509 21.6092 89.4937C15.5413 81.5768 9.18945 73.5533 2.07872 67.2014C1.60467 66.7998 0.941368 66.84 0.562134 67.2902C0.0880814 67.7415 0.182518 68.4334 0.65657 68.8349C7.6725 75.0969 13.9298 83.0161 19.9028 90.8216C23.6952 95.8919 27.1081 101.475 31.0902 106.431C35.8307 112.375 39.7178 116.003 42.9414 117.8C45.2168 119.135 47.2086 119.498 48.9151 119.146C50.6217 118.784 52.1383 117.659 53.276 115.856C54.793 113.471 55.8363 109.817 56.4999 105.332C58.7754 90.2625 56.8786 65.5168 57.8267 49.7956C58.0163 45.8555 58.4908 42.4947 59.1544 40.0271C59.5337 38.5641 60.0079 37.4364 60.7664 36.7599C63.8951 33.5875 67.5921 32.7275 71.5741 32.9715C75.7458 33.2309 80.2966 34.694 84.8475 36.1037C91.9582 38.3343 99.259 40.3825 105.611 38.0334C111.963 35.6808 117.652 28.9295 121.255 13.2048C121.444 12.616 121.065 12.0273 120.497 11.8911C119.928 11.7548 119.264 12.1208 119.169 12.7096Z" fill="#611E97"/>
<path fill-rule="evenodd" clip-rule="evenodd" d="M122.32 13.5617C122.415 13.7146 122.605 14.1304 122.7 14.4739C123.269 16.1442 123.837 18.7362 124.026 19.4967C126.112 26.2242 127.819 33.7549 127.819 40.961C127.819 41.5652 128.293 42.0544 128.862 42.0532C129.526 42.052 130 41.5616 130 40.9575C130 33.5429 128.199 25.793 126.208 18.8701C125.923 18.0989 125.355 15.4678 124.786 13.7714C124.596 13.1613 124.406 12.6567 124.216 12.3392C124.027 12.0786 123.837 11.8997 123.648 11.7872C123.269 11.4958 122.699 11.3536 122.13 11.3726C121.467 11.3939 120.708 11.613 119.95 11.985C118.338 12.7124 116.442 14.0427 114.925 15.0947C114.072 15.6988 113.313 16.2141 112.839 16.3717C108.762 17.7233 104.307 16.2828 100.893 11.6059C100.514 11.1202 99.85 11.0148 99.3759 11.3726C98.9019 11.7303 98.8073 12.4162 99.0917 12.9031C103.263 18.5123 108.573 20.0725 113.503 18.4495C114.735 18.0586 117.39 15.9002 119.76 14.5213C120.519 14.1268 121.183 13.8022 121.752 13.6435C121.941 13.5973 122.036 13.5653 122.226 13.5605C122.226 13.5582 122.32 13.5546 122.32 13.5617Z" fill="#611E97"/>
</g>
<defs>
<clipPath id="clip0_1_2195">
<rect width="130" height="130" fill="white" transform="translate(130 130) rotate(-180)"/>
</clipPath>
</defs>
</svg>
