<svg width="80" height="80" viewBox="0 0 80 80" fill="none" xmlns="http://www.w3.org/2000/svg">
<g clip-path="url(#clip0_1_3734)">
<rect width="80" height="80" rx="40" fill="white"/>
<g filter="url(#filter0_dd_1_3734)">
<path d="M56.6168 50.5499C56.6168 51.1499 56.4835 51.7666 56.2002 52.3666C55.9168 52.9666 55.5502 53.5333 55.0668 54.0666C54.2502 54.9666 53.3502 55.6166 52.3335 56.0333C51.3335 56.4499 50.2502 56.6666 49.0835 56.6666C47.3835 56.6666 45.5668 56.2666 43.6502 55.4499C41.7335 54.6333 39.8168 53.5333 37.9168 52.1499C36.0002 50.7499 34.1835 49.1999 32.4502 47.4833C30.7335 45.7499 29.1835 43.9333 27.8002 42.0333C26.4335 40.1333 25.3335 38.2333 24.5335 36.3499C23.7335 34.4499 23.3335 32.6333 23.3335 30.8999C23.3335 29.7666 23.5335 28.6833 23.9335 27.6833C24.3335 26.6666 24.9668 25.7333 25.8502 24.8999C26.9168 23.8499 28.0835 23.3333 29.3168 23.3333C29.7835 23.3333 30.2502 23.4333 30.6668 23.6333C31.1002 23.8333 31.4835 24.1333 31.7835 24.5666L35.6502 30.0166C35.9502 30.4333 36.1668 30.8166 36.3168 31.1833C36.4668 31.5333 36.5502 31.8833 36.5502 32.1999C36.5502 32.5999 36.4335 32.9999 36.2002 33.3833C35.9835 33.7666 35.6668 34.1666 35.2668 34.5666L34.0002 35.8833C33.8168 36.0666 33.7335 36.2833 33.7335 36.5499C33.7335 36.6833 33.7502 36.7999 33.7835 36.9333C33.8335 37.0666 33.8835 37.1666 33.9168 37.2666C34.2168 37.8166 34.7335 38.5333 35.4668 39.3999C36.2168 40.2666 37.0168 41.1499 37.8835 42.0333C38.7835 42.9166 39.6502 43.7333 40.5335 44.4833C41.4002 45.2166 42.1168 45.7166 42.6835 46.0166C42.7668 46.0499 42.8668 46.0999 42.9835 46.1499C43.1168 46.1999 43.2502 46.2166 43.4002 46.2166C43.6835 46.2166 43.9002 46.1166 44.0835 45.9333L45.3502 44.6833C45.7668 44.2666 46.1668 43.9499 46.5502 43.7499C46.9335 43.5166 47.3168 43.3999 47.7335 43.3999C48.0502 43.3999 48.3835 43.4666 48.7502 43.6166C49.1168 43.7666 49.5002 43.9833 49.9168 44.2666L55.4335 48.1833C55.8668 48.4833 56.1668 48.8333 56.3502 49.2499C56.5168 49.6666 56.6168 50.0833 56.6168 50.5499Z" stroke="#611E97" stroke-width="3" stroke-miterlimit="10"/>
</g>
</g>
<defs>
<filter id="filter0_dd_1_3734" x="-16" y="-16" width="112" height="112" filterUnits="userSpaceOnUse" color-interpolation-filters="sRGB">
<feFlood flood-opacity="0" result="BackgroundImageFix"/>
<feColorMatrix in="SourceAlpha" type="matrix" values="0 0 0 0 0 0 0 0 0 0 0 0 0 0 0 0 0 0 127 0" result="hardAlpha"/>
<feOffset/>
<feGaussianBlur stdDeviation="18"/>
<feComposite in2="hardAlpha" operator="out"/>
<feColorMatrix type="matrix" values="0 0 0 0 0.380392 0 0 0 0 0.117647 0 0 0 0 0.592157 0 0 0 1 0"/>
<feBlend mode="normal" in2="BackgroundImageFix" result="effect1_dropShadow_1_3734"/>
<feColorMatrix in="SourceAlpha" type="matrix" values="0 0 0 0 0 0 0 0 0 0 0 0 0 0 0 0 0 0 127 0" result="hardAlpha"/>
<feOffset dy="4"/>
<feGaussianBlur stdDeviation="2"/>
<feComposite in2="hardAlpha" operator="out"/>
<feColorMatrix type="matrix" values="0 0 0 0 0 0 0 0 0 0 0 0 0 0 0 0 0 0 0.25 0"/>
<feBlend mode="normal" in2="effect1_dropShadow_1_3734" result="effect2_dropShadow_1_3734"/>
<feBlend mode="normal" in="SourceGraphic" in2="effect2_dropShadow_1_3734" result="shape"/>
</filter>
<clipPath id="clip0_1_3734">
<rect width="80" height="80" rx="40" fill="white"/>
</clipPath>
</defs>
</svg>
