<svg width="80" height="80" viewBox="0 0 80 80" fill="none" xmlns="http://www.w3.org/2000/svg">
<rect width="80" height="80" rx="40" fill="white"/>
<g filter="url(#filter0_d_1_3762)">
<path d="M40 22.5C30.3359 22.5 22.5 30.3359 22.5 40C22.5 49.6641 30.3359 57.5 40 57.5C49.6641 57.5 57.5 49.6641 57.5 40C57.5 30.3359 49.6641 22.5 40 22.5ZM48.4102 35.6914C48.4219 35.875 48.4219 36.0664 48.4219 36.2539C48.4219 41.9883 44.0547 48.5938 36.0742 48.5938C33.6133 48.5938 31.332 47.8789 29.4102 46.6484C29.7617 46.6875 30.0977 46.7031 30.457 46.7031C32.4883 46.7031 34.3555 46.0156 35.8438 44.8516C33.9375 44.8125 32.3359 43.5625 31.7891 41.8438C32.457 41.9414 33.0586 41.9414 33.7461 41.7656C32.7646 41.5662 31.8823 41.0331 31.2493 40.257C30.6162 39.4808 30.2714 38.5094 30.2734 37.5078V37.4531C30.8477 37.7773 31.5234 37.9766 32.2305 38.0039C31.6361 37.6078 31.1487 37.0711 30.8114 36.4415C30.4741 35.8119 30.2974 35.1088 30.2969 34.3945C30.2969 33.5859 30.5078 32.8477 30.8867 32.207C31.9762 33.5482 33.3357 34.6451 34.8768 35.4264C36.418 36.2078 38.1063 36.6561 39.832 36.7422C39.2188 33.793 41.4219 31.4062 44.0703 31.4062C45.3203 31.4062 46.4453 31.9297 47.2383 32.7734C48.2188 32.5898 49.1562 32.2227 49.9922 31.7305C49.668 32.7344 48.9883 33.582 48.0859 34.1172C48.9609 34.0234 49.8047 33.7812 50.5859 33.4414C49.9961 34.3086 49.2578 35.0781 48.4102 35.6914Z" fill="#611E97"/>
</g>
<defs>
<filter id="filter0_d_1_3762" x="20" y="20" width="40" height="44" filterUnits="userSpaceOnUse" color-interpolation-filters="sRGB">
<feFlood flood-opacity="0" result="BackgroundImageFix"/>
<feColorMatrix in="SourceAlpha" type="matrix" values="0 0 0 0 0 0 0 0 0 0 0 0 0 0 0 0 0 0 127 0" result="hardAlpha"/>
<feOffset dy="4"/>
<feComposite in2="hardAlpha" operator="out"/>
<feColorMatrix type="matrix" values="0 0 0 0 0 0 0 0 0 0 0 0 0 0 0 0 0 0 0.25 0"/>
<feBlend mode="normal" in2="BackgroundImageFix" result="effect1_dropShadow_1_3762"/>
<feBlend mode="normal" in="SourceGraphic" in2="effect1_dropShadow_1_3762" result="shape"/>
</filter>
</defs>
</svg>
