<svg width="25" height="30" viewBox="0 0 25 30" fill="none" xmlns="http://www.w3.org/2000/svg">
<path d="M21.875 7.70286C18.4062 7.30286 14.9167 7.0968 11.4375 7.0968C9.375 7.0968 7.3125 7.21801 5.25 7.46044L3.125 7.70286" stroke="#1B1B1B" stroke-width="1.5" stroke-linecap="round" stroke-linejoin="round"/>
<path d="M8.85352 6.47866L9.08268 4.89078C9.24935 3.73927 9.37435 2.87866 11.1348 2.87866H13.8639C15.6243 2.87866 15.7598 3.78775 15.916 4.9029L16.1452 6.47866" stroke="#1B1B1B" stroke-width="1.5" stroke-linecap="round" stroke-linejoin="round"/>
<path d="M19.6361 11.5334L18.959 23.7395C18.8444 25.6425 18.7506 27.1213 15.8444 27.1213H9.1569C6.25065 27.1213 6.1569 25.6425 6.04232 23.7395L5.36523 11.5334" stroke="#1B1B1B" stroke-width="1.5" stroke-linecap="round" stroke-linejoin="round"/>
<path d="M10.7617 20.4546H14.2305" stroke="#1B1B1B" stroke-width="1.5" stroke-linecap="round" stroke-linejoin="round"/>
<path d="M9.89648 15.6061H15.1048" stroke="#1B1B1B" stroke-width="1.5" stroke-linecap="round" stroke-linejoin="round"/>
</svg>
