<svg width="30" height="30" viewBox="0 0 30 30" fill="none" xmlns="http://www.w3.org/2000/svg">
<path d="M20 16.125V21.375C20 25.75 18.25 27.5 13.875 27.5H8.625C4.25 27.5 2.5 25.75 2.5 21.375V16.125C2.5 11.75 4.25 10 8.625 10H13.875C18.25 10 20 11.75 20 16.125Z" stroke="#292D32" stroke-width="1.5" stroke-linecap="round" stroke-linejoin="round"/>
<path d="M27.5 8.625V13.875C27.5 18.25 25.75 20 21.375 20H20V16.125C20 11.75 18.25 10 13.875 10H10V8.625C10 4.25 11.75 2.5 16.125 2.5H21.375C25.75 2.5 27.5 4.25 27.5 8.625Z" stroke="#292D32" stroke-width="1.5" stroke-linecap="round" stroke-linejoin="round"/>
</svg>
