<svg width="64" height="64" viewBox="0 0 64 64" fill="none" xmlns="http://www.w3.org/2000/svg">
<path d="M53.6002 24.5872C48.7735 24.5872 46.8002 21.1738 49.2002 16.9871C50.5868 14.5605 49.7602 11.4671 47.3335 10.0805L42.7202 7.44048C40.6135 6.18715 37.8935 6.93382 36.6402 9.04048L36.3468 9.54715C33.9468 13.7338 30.0002 13.7338 27.5735 9.54715L27.2802 9.04048C26.0802 6.93382 23.3602 6.18715 21.2535 7.44048L16.6402 10.0805C14.2135 11.4671 13.3868 14.5871 14.7735 17.0138C17.2002 21.1738 15.2268 24.5872 10.4002 24.5872C7.62683 24.5872 5.3335 26.8538 5.3335 29.6538V34.3471C5.3335 37.1205 7.60016 39.4138 10.4002 39.4138C15.2268 39.4138 17.2002 42.8271 14.7735 47.0138C13.3868 49.4405 14.2135 52.5338 16.6402 53.9205L21.2535 56.5605C23.3602 57.8138 26.0802 57.0672 27.3335 54.9605L27.6268 54.4538C30.0268 50.2672 33.9735 50.2672 36.4002 54.4538L36.6935 54.9605C37.9468 57.0672 40.6668 57.8138 42.7735 56.5605L47.3868 53.9205C49.8135 52.5338 50.6402 49.4138 49.2535 47.0138C46.8268 42.8271 48.8002 39.4138 53.6268 39.4138C56.4002 39.4138 58.6935 37.1471 58.6935 34.3471V29.6538C58.6668 26.8805 56.4002 24.5872 53.6002 24.5872ZM32.0002 40.6671C27.2268 40.6671 23.3335 36.7738 23.3335 32.0005C23.3335 27.2271 27.2268 23.3338 32.0002 23.3338C36.7735 23.3338 40.6668 27.2271 40.6668 32.0005C40.6668 36.7738 36.7735 40.6671 32.0002 40.6671Z" fill="#611E97"/>
</svg>
