<svg width="112" height="113" viewBox="0 0 112 113" fill="none" xmlns="http://www.w3.org/2000/svg">
<g filter="url(#filter0_di_1_2017)">
<circle cx="54" cy="55" r="50" fill="url(#paint0_linear_1_2017)" shape-rendering="crispEdges"/>
</g>
<g filter="url(#filter1_d_1_2017)">
<path d="M54.2832 39.3333H50.9499C42.6165 39.3333 39.2832 42.6667 39.2832 51V61C39.2832 69.3333 42.6165 72.6667 50.9499 72.6667H60.9499C69.2832 72.6667 72.6165 69.3333 72.6165 61V57.6667" stroke="#611E97" stroke-width="1.5" stroke-linecap="round" stroke-linejoin="round"/>
<path d="M72.4667 41.9333C70.4167 47.05 65.2667 54.0167 60.9667 57.4667L58.3334 59.5667C58.0001 59.8167 57.6667 60.0167 57.2834 60.1667C57.2834 59.9167 57.2667 59.6667 57.2334 59.4C57.0834 58.2833 56.5834 57.2333 55.6834 56.35C54.7667 55.4333 53.6667 54.9167 52.5334 54.7667C52.2667 54.75 52.0001 54.7333 51.7334 54.75C51.8834 54.3333 52.1001 53.95 52.3834 53.6333L54.4834 51C57.9334 46.7 64.9167 41.5167 70.0167 39.4667C70.8001 39.1667 71.5667 39.4 72.0501 39.8833C72.5501 40.3833 72.7834 41.15 72.4667 41.9333Z" stroke="#611E97" stroke-width="1.5" stroke-linecap="round" stroke-linejoin="round"/>
<path d="M57.2998 60.15C57.2998 61.6167 56.7332 63.0167 55.6832 64.0833C54.8665 64.9 53.7665 65.4667 52.4498 65.6333L49.1665 65.9833C47.3832 66.1833 45.8498 64.6667 46.0498 62.85L46.3998 59.5667C46.7165 56.65 49.1498 54.7833 51.7498 54.7333C52.0165 54.7167 52.2832 54.7333 52.5498 54.75C53.6832 54.9 54.7832 55.4167 55.6998 56.3333C56.5998 57.2333 57.0998 58.2667 57.2498 59.3833C57.2832 59.65 57.2998 59.9167 57.2998 60.15Z" stroke="#611E97" stroke-width="1.5" stroke-linecap="round" stroke-linejoin="round"/>
<path d="M62.3665 55.9667C62.3665 52.4833 59.5498 49.65 56.0498 49.65" stroke="#611E97" stroke-width="1.5" stroke-linecap="round" stroke-linejoin="round"/>
</g>
<defs>
<filter id="filter0_di_1_2017" x="0" y="5" width="108" height="108" filterUnits="userSpaceOnUse" color-interpolation-filters="sRGB">
<feFlood flood-opacity="0" result="BackgroundImageFix"/>
<feColorMatrix in="SourceAlpha" type="matrix" values="0 0 0 0 0 0 0 0 0 0 0 0 0 0 0 0 0 0 127 0" result="hardAlpha"/>
<feOffset dy="4"/>
<feGaussianBlur stdDeviation="2"/>
<feComposite in2="hardAlpha" operator="out"/>
<feColorMatrix type="matrix" values="0 0 0 0 0 0 0 0 0 0 0 0 0 0 0 0 0 0 0.25 0"/>
<feBlend mode="normal" in2="BackgroundImageFix" result="effect1_dropShadow_1_2017"/>
<feBlend mode="normal" in="SourceGraphic" in2="effect1_dropShadow_1_2017" result="shape"/>
<feColorMatrix in="SourceAlpha" type="matrix" values="0 0 0 0 0 0 0 0 0 0 0 0 0 0 0 0 0 0 127 0" result="hardAlpha"/>
<feOffset dy="4"/>
<feGaussianBlur stdDeviation="2"/>
<feComposite in2="hardAlpha" operator="arithmetic" k2="-1" k3="1"/>
<feColorMatrix type="matrix" values="0 0 0 0 0 0 0 0 0 0 0 0 0 0 0 0 0 0 0.25 0"/>
<feBlend mode="normal" in2="shape" result="effect2_innerShadow_1_2017"/>
</filter>
<filter id="filter1_d_1_2017" x="0" y="0" width="112" height="112" filterUnits="userSpaceOnUse" color-interpolation-filters="sRGB">
<feFlood flood-opacity="0" result="BackgroundImageFix"/>
<feColorMatrix in="SourceAlpha" type="matrix" values="0 0 0 0 0 0 0 0 0 0 0 0 0 0 0 0 0 0 127 0" result="hardAlpha"/>
<feOffset/>
<feGaussianBlur stdDeviation="18"/>
<feComposite in2="hardAlpha" operator="out"/>
<feColorMatrix type="matrix" values="0 0 0 0 0.729412 0 0 0 0 0.407843 0 0 0 0 0.784314 0 0 0 1 0"/>
<feBlend mode="normal" in2="BackgroundImageFix" result="effect1_dropShadow_1_2017"/>
<feBlend mode="normal" in="SourceGraphic" in2="effect1_dropShadow_1_2017" result="shape"/>
</filter>
<linearGradient id="paint0_linear_1_2017" x1="54" y1="5" x2="54" y2="105" gradientUnits="userSpaceOnUse">
<stop stop-color="white"/>
<stop offset="1" stop-color="#D9D9D9" stop-opacity="0"/>
</linearGradient>
</defs>
</svg>
