<svg width="206" height="22" viewBox="0 0 206 32" fill="none" xmlns="http://www.w3.org/2000/svg">
<path d="M2.20312 0.492188C3.47917 0.492188 4.55339 1.17578 5.42578 2.54297C5.46484 2.49089 5.51042 2.41927 5.5625 2.32812C5.6276 2.23698 5.76432 2.07422 5.97266 1.83984C6.19401 1.59245 6.42188 1.3776 6.65625 1.19531C7.26823 0.726562 7.89974 0.492188 8.55078 0.492188C9.20182 0.492188 9.69661 0.589844 10.0352 0.785156C10.3867 0.980469 10.5885 1.16927 10.6406 1.35156L10.7188 1.64453C9.82031 2.51693 9.20182 3.4349 8.86328 4.39844C8.52474 5.36198 8.35547 6.59245 8.35547 8.08984C8.35547 9.57422 8.40755 10.7591 8.51172 11.6445C8.61589 12.5169 8.74609 13.1875 8.90234 13.6562C9.05859 14.125 9.22786 14.5221 9.41016 14.8477C9.60547 15.1602 9.78125 15.375 9.9375 15.4922C10.3021 15.7917 10.4844 16.013 10.4844 16.1562C10.4844 16.2995 10.4128 16.4362 10.2695 16.5664C10.1263 16.6966 9.95052 16.8919 9.74219 17.1523C9.53385 17.4128 9.32552 17.7578 9.11719 18.1875C8.60938 19.2161 8.35547 20.8242 8.35547 23.0117C8.35547 25.1992 8.52474 26.8203 8.86328 27.875C9.20182 28.9167 9.82031 29.8932 10.7188 30.8047C10.7188 31.2734 10.3542 31.625 9.625 31.8594C9.35156 31.9375 8.96745 31.9766 8.47266 31.9766C7.99089 31.9766 7.48307 31.7878 6.94922 31.4102C6.41536 31.0326 6.03125 30.6615 5.79688 30.2969L5.42578 29.7305C5.3737 29.8607 5.21745 30.0885 4.95703 30.4141C4.69661 30.7396 4.44922 31 4.21484 31.1953C3.58984 31.7161 3.00391 31.9766 2.45703 31.9766C1.92318 31.9766 1.51953 31.9375 1.24609 31.8594C0.972656 31.7812 0.770833 31.6836 0.640625 31.5664C0.354167 31.306 0.191406 31.0521 0.152344 30.8047C1.05078 29.8932 1.66927 28.9167 2.00781 27.875C2.34635 26.8203 2.51562 25.5052 2.51562 23.9297C2.51562 22.3411 2.44401 21.0977 2.30078 20.1992C2.15755 19.3008 1.98177 18.6367 1.77344 18.207C1.5651 17.7643 1.35026 17.4128 1.12891 17.1523C0.920573 16.8919 0.744792 16.6966 0.601562 16.5664C0.458333 16.4362 0.386719 16.3125 0.386719 16.1953C0.386719 16.0781 0.458333 15.9544 0.601562 15.8242C0.744792 15.694 0.920573 15.5052 1.12891 15.2578C1.35026 15.0104 1.5651 14.6654 1.77344 14.2227C2.26823 13.168 2.51562 11.5078 2.51562 9.24219C2.51562 6.97656 2.34635 5.36198 2.00781 4.39844C1.66927 3.4349 1.05078 2.51693 0.152344 1.64453C0.152344 1.17578 0.510417 0.830729 1.22656 0.609375C1.51302 0.53125 1.83854 0.492188 2.20312 0.492188ZM28.0478 31C25.7545 30.9733 23.6878 30.6 21.8478 29.88C20.0078 29.16 18.4478 28.1733 17.1678 26.92C15.8878 25.6667 14.9011 24.2 14.2078 22.52C13.5145 20.8133 13.1678 18.9733 13.1678 17C13.1678 15.0267 13.5145 13.2 14.2078 11.52C14.9011 9.81333 15.8878 8.33333 17.1678 7.08C18.4745 5.82666 20.0345 4.84 21.8478 4.12C23.6878 3.4 25.7545 3.02666 28.0478 3H32.3678V8.6H28.2078C26.9545 8.62667 25.8078 8.85333 24.7678 9.28C23.7545 9.70667 22.8745 10.2933 22.1278 11.04C21.4078 11.7867 20.8478 12.6667 20.4478 13.68C20.0745 14.6933 19.8878 15.8 19.8878 17C19.8878 18.2 20.0745 19.3067 20.4478 20.32C20.8478 21.3333 21.4078 22.2133 22.1278 22.96C22.8745 23.7067 23.7545 24.2933 24.7678 24.72C25.8078 25.1467 26.9545 25.3733 28.2078 25.4H32.3678V31H28.0478ZM49.7266 31.52C47.4866 31.52 45.4599 31.1467 43.6466 30.4C41.8332 29.6533 40.2732 28.6133 38.9666 27.28C37.6599 25.9467 36.6466 24.4 35.9266 22.64C35.2332 20.88 34.8866 18.9867 34.8866 16.96C34.8866 14.9333 35.2332 13.04 35.9266 11.28C36.6466 9.52 37.6466 7.98667 38.9266 6.68C40.2332 5.34666 41.7932 4.32 43.6066 3.6C45.4466 2.85333 47.4866 2.48 49.7266 2.48C51.9399 2.48 53.9532 2.85333 55.7666 3.6C57.6066 4.32 59.1666 5.34666 60.4466 6.68C61.7532 7.98667 62.7666 9.53333 63.4866 11.32C64.2066 13.08 64.5666 14.96 64.5666 16.96C64.5666 18.9867 64.2066 20.88 63.4866 22.64C62.7666 24.4 61.7532 25.9467 60.4466 27.28C59.1666 28.6133 57.6066 29.6533 55.7666 30.4C53.9532 31.1467 51.9399 31.52 49.7266 31.52ZM49.7266 25.8C50.8999 25.8 51.9799 25.5867 52.9666 25.16C53.9799 24.7067 54.8466 24.08 55.5666 23.28C56.2866 22.48 56.8466 21.5467 57.2466 20.48C57.6466 19.3867 57.8466 18.2133 57.8466 16.96C57.8466 15.7067 57.6466 14.5467 57.2466 13.48C56.8466 12.4133 56.2866 11.48 55.5666 10.68C54.8466 9.88 53.9799 9.26667 52.9666 8.84C51.9799 8.38667 50.8999 8.16 49.7266 8.16C48.5266 8.16 47.4332 8.38667 46.4466 8.84C45.4599 9.26667 44.5932 9.88 43.8466 10.68C43.1266 11.48 42.5666 12.4267 42.1666 13.52C41.7932 14.5867 41.6066 15.7333 41.6066 16.96C41.6066 18.2133 41.7932 19.3867 42.1666 20.48C42.5666 21.5467 43.1266 22.48 43.8466 23.28C44.5932 24.08 45.4599 24.7067 46.4466 25.16C47.4332 25.5867 48.5266 25.8 49.7266 25.8ZM87.8397 31.48C86.1597 31.48 84.653 31.12 83.3197 30.4C81.9864 29.6533 80.933 28.6267 80.1597 27.32C79.3864 26.0133 78.9997 24.5333 78.9997 22.88V10.64C78.9997 10.2133 78.893 9.82667 78.6797 9.48C78.4664 9.13333 78.1864 8.85333 77.8397 8.64C77.493 8.42667 77.1064 8.32 76.6797 8.32C76.253 8.32 75.8664 8.42667 75.5197 8.64C75.173 8.85333 74.893 9.13333 74.6797 9.48C74.493 9.82667 74.3997 10.2133 74.3997 10.64V31H67.8397V11.12C67.8397 9.44 68.213 7.96 68.9597 6.68C69.733 5.4 70.7864 4.38667 72.1197 3.64C73.4797 2.89333 74.9997 2.52 76.6797 2.52C78.3864 2.52 79.9064 2.89333 81.2397 3.64C82.573 4.38667 83.6264 5.4 84.3997 6.68C85.173 7.96 85.5597 9.44 85.5597 11.12V23.36C85.5597 23.7867 85.6664 24.1867 85.8797 24.56C86.093 24.9067 86.3597 25.1867 86.6797 25.4C87.0264 25.5867 87.3997 25.68 87.7997 25.68C88.2264 25.68 88.613 25.5867 88.9597 25.4C89.333 25.1867 89.6264 24.9067 89.8397 24.56C90.053 24.1867 90.1597 23.7867 90.1597 23.36V3H96.6797V22.88C96.6797 24.5333 96.293 26.0133 95.5197 27.32C94.7464 28.6267 93.693 29.6533 92.3597 30.4C91.0264 31.12 89.5197 31.48 87.8397 31.48ZM98.8828 31L107.963 6.24C108.416 5.01333 109.163 4.09333 110.203 3.48C111.243 2.84 112.416 2.52 113.723 2.52C115.029 2.52 116.203 2.82667 117.243 3.44C118.283 4.02667 119.029 4.94667 119.483 6.2L128.603 31H121.363L119.603 25.6H107.723L105.883 31H98.8828ZM109.443 20.04H117.883L114.323 8.88C114.269 8.72 114.189 8.61333 114.083 8.56C114.003 8.48 113.896 8.44 113.763 8.44C113.629 8.44 113.509 8.48 113.403 8.56C113.323 8.64 113.269 8.74667 113.243 8.88L109.443 20.04ZM141.465 31C139.758 31 138.252 30.6267 136.945 29.88C135.665 29.1067 134.652 28.08 133.905 26.8C133.185 25.52 132.825 24.0933 132.825 22.52V8.6H125.225V3H147.105V8.6H139.545V23.12C139.545 23.7333 139.758 24.2667 140.185 24.72C140.612 25.1733 141.145 25.4 141.785 25.4H143.985V31H141.465ZM162.5 31.52C160.26 31.52 158.233 31.1467 156.42 30.4C154.607 29.6533 153.047 28.6133 151.74 27.28C150.433 25.9467 149.42 24.4 148.7 22.64C148.007 20.88 147.66 18.9867 147.66 16.96C147.66 14.9333 148.007 13.04 148.7 11.28C149.42 9.52 150.42 7.98667 151.7 6.68C153.007 5.34666 154.567 4.32 156.38 3.6C158.22 2.85333 160.26 2.48 162.5 2.48C164.713 2.48 166.727 2.85333 168.54 3.6C170.38 4.32 171.94 5.34666 173.22 6.68C174.527 7.98667 175.54 9.53333 176.26 11.32C176.98 13.08 177.34 14.96 177.34 16.96C177.34 18.9867 176.98 20.88 176.26 22.64C175.54 24.4 174.527 25.9467 173.22 27.28C171.94 28.6133 170.38 29.6533 168.54 30.4C166.727 31.1467 164.713 31.52 162.5 31.52ZM162.5 25.8C163.673 25.8 164.753 25.5867 165.74 25.16C166.753 24.7067 167.62 24.08 168.34 23.28C169.06 22.48 169.62 21.5467 170.02 20.48C170.42 19.3867 170.62 18.2133 170.62 16.96C170.62 15.7067 170.42 14.5467 170.02 13.48C169.62 12.4133 169.06 11.48 168.34 10.68C167.62 9.88 166.753 9.26667 165.74 8.84C164.753 8.38667 163.673 8.16 162.5 8.16C161.3 8.16 160.207 8.38667 159.22 8.84C158.233 9.26667 157.367 9.88 156.62 10.68C155.9 11.48 155.34 12.4267 154.94 13.52C154.567 14.5867 154.38 15.7333 154.38 16.96C154.38 18.2133 154.567 19.3867 154.94 20.48C155.34 21.5467 155.9 22.48 156.62 23.28C157.367 24.08 158.233 24.7067 159.22 25.16C160.207 25.5867 161.3 25.8 162.5 25.8ZM180.893 31V3H193.693C195.586 3 197.306 3.41333 198.853 4.24C200.426 5.06667 201.666 6.21333 202.573 7.68C203.506 9.14667 203.973 10.84 203.973 12.76C203.973 14.5467 203.546 16.16 202.693 17.6C201.84 19.0133 200.72 20.16 199.333 21.04L201.573 24.84C201.706 25.0267 201.853 25.1733 202.013 25.28C202.2 25.3867 202.44 25.44 202.733 25.44H205.213V31H201.293C200.093 31 199 30.72 198.013 30.16C197.026 29.5733 196.253 28.8133 195.693 27.88L192.693 22.56C192.506 22.56 192.306 22.56 192.093 22.56C191.906 22.56 191.706 22.56 191.493 22.56H187.613V31H180.893ZM187.613 17H192.933C193.706 17 194.426 16.84 195.093 16.52C195.76 16.1733 196.28 15.6933 196.653 15.08C197.053 14.44 197.253 13.68 197.253 12.8C197.253 11.92 197.053 11.1733 196.653 10.56C196.253 9.92 195.72 9.44 195.053 9.12C194.413 8.77333 193.706 8.6 192.933 8.6H187.613V17Z" fill="white"/>
</svg>
