<svg width="563" height="597" viewBox="0 0 563 597" fill="none" xmlns="http://www.w3.org/2000/svg">
    <path d="M215.5 95C230.136 95 242 83.1355 242 68.5C242 53.8645 230.136 42 215.5 42C200.864 42 189 53.8645 189 68.5C189 83.1355 200.864 95 215.5 95Z" fill="#FD6584"/>
    <path d="M275.402 55.7024C274.652 53.2058 273.199 50.9865 271.222 49.3175C269.244 47.6485 266.829 46.6028 264.274 46.309C264.214 46.304 264.154 46.304 264.095 46.309C264.023 46.2863 263.95 46.2694 263.876 46.2585C254.969 45.0856 245.067 47.9369 238.402 54.1452C235.927 56.4136 233.949 59.1829 232.594 62.2747C231.358 60.5619 229.73 59.1806 227.85 58.2503C225.97 57.3201 223.895 56.869 221.804 56.936C219.108 57.1169 216.533 58.1373 214.429 59.8581C212.325 61.5789 210.796 63.9163 210.049 66.5517C209.966 66.8737 209.989 67.214 210.113 67.5219C210.237 67.8298 210.455 68.0889 210.736 68.2605C211.537 68.9561 212.49 69.4482 213.515 69.6963C215.717 70.1716 217.939 70.6064 220.16 71.0007C224.504 71.7692 228.871 72.3927 233.261 72.8713C236.16 73.1847 239.066 73.4341 241.978 73.6195C247.996 74.0037 254.043 74.0947 260.07 73.9026C263.059 73.8015 265.928 73.7004 268.658 72.3657C270.647 71.3729 272.346 69.8708 273.589 68.0078C274.759 66.2157 275.527 64.1852 275.841 62.0592C276.154 59.9332 276.004 57.7634 275.402 55.7024V55.7024Z" fill="#E6E6E6"/>
    <path d="M219.97 95.0347C219.92 93.903 219.732 92.7819 219.412 91.6967C218.659 89.1994 217.203 86.9799 215.224 85.3106C213.245 83.6413 210.83 82.5948 208.274 82.2997C208.217 82.2946 208.161 82.2946 208.104 82.2997C208.029 82.278 207.952 82.2611 207.875 82.2491C202.945 81.636 197.943 82.1581 193.239 83.7765C186.006 86.2345 179.659 91.1909 176.601 98.2715C175.364 96.5569 173.734 95.1745 171.852 94.2438C169.97 93.3132 167.893 92.8624 165.801 92.9307C163.104 93.1116 160.529 94.1324 158.425 95.8539C156.321 97.5754 154.791 99.9138 154.044 102.55C153.967 102.872 153.992 103.211 154.115 103.518C154.238 103.825 154.454 104.085 154.732 104.26C155.534 104.954 156.487 105.446 157.511 105.696C159.723 106.171 161.935 106.606 164.167 107.001C168.511 107.77 172.875 108.393 177.258 108.872C186.165 109.843 195.126 110.188 204.079 109.904C207.058 109.803 209.937 109.702 212.667 108.366C214.654 107.373 216.35 105.87 217.589 104.007C219.336 101.365 220.173 98.2101 219.97 95.0347Z" fill="#E6E6E6"/>
    <path d="M418.177 431.373H393.834V51.4972C392.194 50.2875 390.544 49.0879 388.874 47.9181C388.544 47.6882 388.214 47.4583 387.884 47.2283C368.631 33.7663 347.804 22.7071 325.867 14.2965L321.146 79.3804L321.146 79.3844H290.773V3.38916C288.792 2.89928 286.812 2.43939 284.812 2.0095V79.3844H170.119V0C168.129 0.369908 166.139 0.749818 164.158 1.15972V79.3844H132.785L132.785 79.3804L127.834 11.1273C106.485 18.5248 86.0826 28.4105 67.0475 40.58C66.3874 40.9998 65.7273 41.4197 65.0673 41.8596C63.7371 42.7194 62.407 43.5992 61.0968 44.489V431.373H26.823C22.4379 431.371 18.1192 432.443 14.2454 434.497C10.3716 436.551 7.06098 439.524 4.60384 443.154C2.1467 446.785 0.618029 450.963 0.151893 455.321C-0.314242 459.68 0.296373 464.086 1.9302 468.154C2.42041 469.384 3.00557 470.574 3.6804 471.713C4.55198 473.199 5.56336 474.598 6.70076 475.892C9.21323 478.754 12.3079 481.047 15.7781 482.618C19.2482 484.189 23.0138 485.001 26.823 485H418.177C425.291 485 432.113 482.175 437.144 477.147C442.174 472.118 445 465.298 445 458.187C445 451.075 442.174 444.255 437.144 439.227C432.113 434.198 425.291 431.373 418.177 431.373L418.177 431.373ZM314.605 169.74L295.673 431.373H158.258L139.326 169.74H314.605ZM320.716 85.3418L316.046 149.882H290.773V85.3418H320.716ZM284.812 85.3418V149.882H239.175C238.261 148.089 236.869 146.584 235.153 145.533C233.437 144.481 231.463 143.925 229.451 143.924H223.491C221.478 143.925 219.505 144.481 217.789 145.533C216.073 146.584 214.681 148.089 213.767 149.882H170.119V85.3418H284.812ZM164.158 149.882H137.885L133.215 85.3418H164.158V149.882Z" fill="#F2F2F2"/>
    <path d="M2 475C10.6908 485.311 20.091 495 30.1316 503.998L409.868 505C419.909 496.002 429.309 486.312 438 476.002L2 475Z" fill="#3F3D56"/>
    <path d="M194 378.46V481H266V378.46C266.001 377.722 265.765 377.004 265.327 376.41C264.889 375.816 264.271 375.378 263.565 375.16C263.232 375.05 262.883 374.996 262.533 375H197.477C197.021 374.999 196.569 375.088 196.148 375.262C195.726 375.435 195.343 375.69 195.02 376.011C194.697 376.332 194.441 376.714 194.266 377.134C194.091 377.554 194 378.005 194 378.46V378.46ZM222.099 413.693C222.118 411.672 222.936 409.739 224.375 408.317C225.814 406.894 227.759 406.096 229.785 406.096C231.811 406.096 233.755 406.894 235.194 408.317C236.633 409.739 237.451 411.672 237.471 413.693V425.591C237.46 427.618 236.646 429.558 235.206 430.988C233.765 432.417 231.816 433.22 229.785 433.22C227.753 433.22 225.804 432.417 224.364 430.988C222.923 429.558 222.109 427.618 222.099 425.591V413.693Z" fill="#2F2E41"/>
    <path d="M194 477V487.032C194.002 487.552 194.204 488.05 194.564 488.418C194.924 488.787 195.412 488.996 195.922 489H264.078C264.588 488.997 265.077 488.789 265.438 488.42C265.798 488.051 266 487.552 266 487.032V477H194Z" fill="#3F3D56"/>
    <path d="M81 222.979V410.011C81.0019 412.394 81.9491 414.68 83.6337 416.365C85.3183 418.05 87.6024 418.998 89.9848 419H367.015C369.398 418.998 371.682 418.05 373.366 416.365C375.051 414.68 375.998 412.394 376 410.011V222.979C375.994 220.598 375.046 218.316 373.362 216.633C371.678 214.95 369.395 214.003 367.015 214H89.9848C87.6045 214.003 85.3225 214.95 83.6385 216.633C81.9544 218.316 81.0057 220.598 81 222.979V222.979Z" fill="#3F3D56"/>
    <path d="M88 225.814V408.196C88.0022 409.47 88.5088 410.69 89.4088 411.591C90.3088 412.491 91.5289 412.998 92.8017 413H365.198C366.471 412.998 367.691 412.491 368.591 411.591C369.491 410.69 369.998 409.47 370 408.196V225.814C370 224.539 369.494 223.316 368.594 222.414C367.694 221.511 366.473 221.003 365.198 221H92.8017C91.5273 221.003 90.3061 221.511 89.4059 222.414C88.5057 223.316 88.0001 224.539 88 225.814V225.814Z" fill="#6C63FF"/>
    <path d="M142.67 491.886C142.948 492.236 143.3 492.517 143.701 492.71C144.102 492.903 144.541 493.002 144.986 493H307.022C307.465 492.999 307.903 492.9 308.303 492.708C308.703 492.516 309.055 492.237 309.334 491.891C309.613 491.545 309.812 491.141 309.916 490.708C310.021 490.275 310.028 489.824 309.937 489.388L307.421 477.378C307.317 476.888 307.093 476.432 306.768 476.052C306.444 475.672 306.03 475.379 305.565 475.201C305.228 475.068 304.869 475 304.507 475H147.491C147.129 475 146.77 475.068 146.433 475.201C145.968 475.379 145.554 475.672 145.23 476.052C144.906 476.432 144.681 476.888 144.577 477.378L142.062 489.388C141.972 489.824 141.98 490.274 142.086 490.706C142.191 491.138 142.391 491.541 142.67 491.886Z" fill="#2F2E41"/>
    <path d="M147.996 477C147.947 476.999 147.898 477.008 147.852 477.026C147.773 477.053 147.701 477.099 147.644 477.161C147.587 477.223 147.546 477.298 147.525 477.38L145.009 489.412C144.995 489.482 144.997 489.554 145.015 489.622C145.032 489.691 145.065 489.755 145.11 489.809L145.121 489.823C145.165 489.88 145.221 489.926 145.285 489.957C145.35 489.987 145.42 490.002 145.492 490H307.515C307.586 490.001 307.656 489.985 307.72 489.955C307.784 489.924 307.84 489.88 307.885 489.824C307.932 489.77 307.966 489.706 307.985 489.637C308.003 489.568 308.005 489.495 307.991 489.425L305.473 477.386C305.454 477.307 305.417 477.234 305.364 477.173C305.311 477.112 305.245 477.065 305.17 477.035C305.116 477.012 305.059 477 305 477H147.996Z" fill="white"/>
    <path d="M100.992 246H356.008C356.273 245.994 356.525 245.886 356.711 245.699C356.896 245.512 357 245.261 357 245C357 244.739 356.896 244.487 356.711 244.301C356.525 244.114 356.273 244.006 356.008 244H100.992C100.727 244.006 100.475 244.114 100.289 244.301C100.104 244.487 100 244.739 100 245C100 245.261 100.104 245.512 100.289 245.699C100.475 245.886 100.727 245.994 100.992 246Z" fill="#3F3D56"/>
    <path d="M339 239C342.314 239 345 236.314 345 233C345 229.686 342.314 227 339 227C335.686 227 333 229.686 333 233C333 236.314 335.686 239 339 239Z" fill="#3F3D56"/>
    <path d="M318 239C321.314 239 324 236.314 324 233C324 229.686 321.314 227 318 227C314.686 227 312 229.686 312 233C312 236.314 314.686 239 318 239Z" fill="#3F3D56"/>
    <path d="M298 239C301.314 239 304 236.314 304 233C304 229.686 301.314 227 298 227C294.686 227 292 229.686 292 233C292 236.314 294.686 239 298 239Z" fill="#3F3D56"/>
    <path d="M112 229.005C111.999 229.135 112.027 229.264 112.083 229.384C112.138 229.505 112.219 229.614 112.321 229.707C112.424 229.799 112.546 229.873 112.681 229.923C112.815 229.973 112.959 229.999 113.105 230H127.906C128.198 229.994 128.476 229.886 128.681 229.699C128.885 229.512 129 229.261 129 229C129 228.739 128.885 228.488 128.681 228.301C128.476 228.114 128.198 228.006 127.906 228H113.105C112.81 228.003 112.527 228.111 112.32 228.299C112.113 228.487 111.998 228.741 112 229.005V229.005Z" fill="#3F3D56"/>
    <path d="M112 233.005C111.999 233.135 112.027 233.264 112.082 233.384C112.138 233.505 112.219 233.614 112.321 233.707C112.424 233.799 112.546 233.873 112.68 233.923C112.815 233.973 112.959 233.999 113.105 234H127.904C128.197 233.994 128.476 233.886 128.681 233.699C128.885 233.513 129 233.261 129 233C129 232.739 128.885 232.487 128.681 232.301C128.476 232.114 128.197 232.006 127.904 232H113.105C112.809 232.003 112.527 232.111 112.32 232.299C112.113 232.487 111.998 232.741 112 233.005V233.005Z" fill="#3F3D56"/>
    <path d="M112 237.995C111.998 238.259 112.113 238.513 112.32 238.701C112.527 238.889 112.81 238.997 113.105 239H127.906C128.198 238.994 128.476 238.886 128.681 238.699C128.885 238.512 129 238.261 129 238C129 237.739 128.885 237.488 128.681 237.301C128.476 237.114 128.198 237.006 127.906 237H113.105C112.959 237.001 112.815 237.027 112.681 237.077C112.546 237.127 112.424 237.201 112.321 237.293C112.219 237.386 112.138 237.495 112.082 237.616C112.027 237.736 111.999 237.865 112 237.995Z" fill="#3F3D56"/>
    <path d="M318.119 277H138.881C136.527 277.003 134.269 277.939 132.604 279.604C130.939 281.269 130.003 283.527 130 285.881V373.118C130.003 375.473 130.939 377.73 132.604 379.396C134.269 381.061 136.527 381.997 138.881 382H318.119C320.473 381.997 322.731 381.061 324.396 379.396C326.061 377.73 326.997 375.473 327 373.118V285.881C326.997 283.527 326.061 281.269 324.396 279.604C322.731 277.939 320.473 277.003 318.119 277ZM325 285.881V311.333H262V279H318.119C319.943 279.002 321.692 279.728 322.982 281.018C324.272 282.308 324.998 284.057 325 285.881H325ZM197 345.667V313.333H260V345.667H197ZM260 347.667V380H197V347.667H260ZM195 345.667H132V313.333H195V345.667ZM197 311.333V279H260V311.333H197ZM262 313.333H325V345.667H262V313.333ZM138.881 279H195V311.333H132V285.881C132.002 284.057 132.728 282.308 134.018 281.018C135.308 279.728 137.057 279.002 138.881 279V279ZM132 373.118V347.667H195V380H138.881C137.057 379.998 135.308 379.272 134.018 377.982C132.728 376.692 132.002 374.943 132 373.118V373.118ZM318.119 380H262V347.667H325V373.118C324.998 374.943 324.272 376.692 322.982 377.982C321.692 379.272 319.943 379.998 318.119 380H318.119Z" fill="#3F3D56"/>
    <path d="M219.8 299.55C218.218 296.925 216.344 294.123 213.408 293.265C210.008 292.273 206.516 294.245 203.554 296.19C194.695 302.009 186.164 308.315 178 315.08L178.009 315.182L197.078 313.862C201.67 313.544 206.42 313.183 210.479 311.003C212.019 310.176 213.52 309.071 215.265 308.994C217.433 308.899 219.324 310.418 220.809 312.005C229.597 321.394 232.141 335.751 242 344C235.783 328.618 228.36 313.754 219.8 299.55V299.55Z" fill="white"/>
    <path d="M273.531 379.9C272.554 378.661 272.155 378.371 271.191 377.121C263.345 366.928 255.971 356.39 249.067 345.509C244.378 338.119 239.922 330.586 235.698 322.912C233.687 319.264 231.731 315.587 229.83 311.881C228.355 309.008 226.913 306.117 225.504 303.21C225.101 302.379 224.71 301.545 224.32 300.709C223.402 298.742 222.501 296.766 221.534 294.826C220.534 292.498 219.003 290.438 217.065 288.813C216.144 288.109 215.042 287.683 213.889 287.585C212.265 287.594 210.674 288.052 209.291 288.908C198.823 294.436 189.053 301.203 180.188 309.067C171.31 316.899 163.375 325.747 156.544 335.43C156.335 335.73 155.84 335.444 156.051 335.142C156.882 333.962 157.729 332.795 158.593 331.641C169.33 317.297 182.496 304.961 197.488 295.199C200.011 293.557 202.58 291.992 205.197 290.504C206.517 289.754 207.841 289.013 209.189 288.318C210.48 287.558 211.929 287.107 213.422 287.001C218.557 286.921 221.217 292.763 223.043 296.694C223.617 297.931 224.198 299.164 224.786 300.394C227.008 305.061 229.315 309.687 231.708 314.269C233.185 317.099 234.694 319.912 236.236 322.708C241.033 331.415 246.132 339.947 251.533 348.302C258.687 359.369 265.784 369.146 273.934 379.496C274.158 379.782 273.757 380.191 273.531 379.9Z" fill="white"/>
    <path d="M180.517 305.504C180.216 305.169 179.917 304.833 179.615 304.497C177.226 301.853 174.664 299.239 171.384 297.723C169.82 296.977 168.113 296.581 166.381 296.562C164.594 296.611 162.832 296.996 161.186 297.696C160.404 298.009 159.639 298.364 158.886 298.742C158.025 299.175 157.18 299.638 156.339 300.104C154.759 300.979 153.2 301.893 151.662 302.845C148.6 304.739 145.635 306.777 142.766 308.961C141.278 310.093 139.821 311.262 138.395 312.469C137.069 313.589 135.769 314.74 134.496 315.921C134.224 316.172 133.818 315.766 134.09 315.514C134.425 315.201 134.765 314.89 135.104 314.583C136.062 313.716 137.036 312.865 138.025 312.031C139.829 310.507 141.679 309.043 143.576 307.637C146.526 305.449 149.578 303.41 152.731 301.519C154.307 300.574 155.904 299.67 157.523 298.805C158.012 298.544 158.507 298.289 159.007 298.047C160.142 297.474 161.321 296.993 162.534 296.61C164.251 296.054 166.068 295.875 167.861 296.086C169.591 296.338 171.259 296.916 172.775 297.788C175.996 299.59 178.493 302.377 180.924 305.096C181.169 305.372 180.765 305.781 180.517 305.504Z" fill="white"/>
    <path d="M245.347 333.262L253.026 330.475L256.838 329.091C258.07 328.599 259.326 328.169 260.602 327.804C261.718 327.488 262.902 327.503 264.009 327.847C264.997 328.21 265.9 328.766 266.667 329.482C267.45 330.198 268.178 330.97 268.846 331.792C269.676 332.782 270.494 333.783 271.316 334.78C274.706 338.895 278.074 343.028 281.42 347.178C284.766 351.329 288.09 355.497 291.391 359.683C294.701 363.88 297.987 368.093 301.251 372.325C301.651 372.843 302.05 373.362 302.449 373.881C302.67 374.167 303.167 373.885 302.943 373.594C299.656 369.32 296.345 365.064 293.011 360.825C289.669 356.576 286.304 352.345 282.916 348.132C279.528 343.919 276.117 339.724 272.683 335.548C271.828 334.508 270.971 333.468 270.113 332.43C269.389 331.554 268.673 330.669 267.879 329.854C267.202 329.046 266.372 328.377 265.436 327.888C264.499 327.398 263.474 327.096 262.42 327C261.143 327.044 259.885 327.319 258.707 327.81C257.423 328.271 256.143 328.741 254.86 329.206L247.128 332.013L245.195 332.715C244.852 332.839 245 333.388 245.347 333.262V333.262Z" fill="white"/>
    <path d="M170.325 301.295C168.377 300.309 166.209 299.873 164.043 300.032C161.877 300.191 159.791 300.94 158 302.202C164.752 303.399 171.43 305.001 178 307C175.272 305.356 173.138 302.781 170.325 301.295Z" fill="white"/>
    <path d="M157.951 302L157 303C157.322 302.65 157.656 302.322 158 302.011L157.951 302Z" fill="white"/>
    <path d="M266.772 333.226C266.098 332.249 265.158 331.478 264.059 331L263 331.041C271.063 345.045 281.952 357.282 295 367L266.772 333.226Z" fill="white"/>
    <path d="M261 317C264.314 317 267 314.314 267 311C267 307.686 264.314 305 261 305C257.686 305 255 307.686 255 311C255 314.314 257.686 317 261 317Z" fill="white"/>
    <path d="M349.5 379C350.693 378.998 351.837 378.524 352.68 377.68C353.524 376.836 353.998 375.693 354 374.5V281.5C354 280.307 353.526 279.162 352.682 278.318C351.838 277.474 350.693 277 349.5 277C348.307 277 347.162 277.474 346.318 278.318C345.474 279.162 345 280.307 345 281.5V374.5C345.002 375.693 345.476 376.836 346.32 377.68C347.164 378.524 348.307 378.998 349.5 379V379Z" fill="#3F3D56"/>
    <path d="M349.5 379C350.693 378.998 351.837 378.515 352.68 377.655C353.524 376.796 353.998 375.631 354 374.415V354.323C353.482 353.603 352.804 353.017 352.022 352.614C351.241 352.21 350.376 352 349.5 352C348.624 352 347.76 352.21 346.978 352.614C346.196 353.017 345.518 353.603 345 354.323V374.415C345.002 375.631 345.476 376.796 346.32 377.655C347.164 378.515 348.307 378.998 349.5 379V379Z" fill="#2F2E41"/>
    <path d="M350 360C351.325 359.998 352.596 359.479 353.533 358.555C354.471 357.632 354.998 356.381 355 355.075V333.495C354.424 332.722 353.671 332.093 352.803 331.659C351.934 331.226 350.974 331 350 331C349.026 331 348.066 331.226 347.197 331.659C346.329 332.093 345.576 332.722 345 333.495V355.075C345.002 356.381 345.529 357.632 346.467 358.555C347.404 359.479 348.674 359.998 350 360V360Z" fill="#6C63FF"/>
    <path d="M349.5 356C350.428 355.999 351.317 355.622 351.973 354.954C352.629 354.285 352.999 353.379 353 352.434V336.807C352.597 336.247 352.07 335.791 351.462 335.477C350.854 335.164 350.182 335 349.5 335C348.818 335 348.146 335.164 347.538 335.477C346.93 335.791 346.403 336.247 346 336.807V352.434C346.001 353.379 346.371 354.285 347.027 354.954C347.683 355.622 348.572 355.999 349.5 356V356Z" fill="#3F3D56"/>
    <path d="M210.324 482.984C209.539 482.276 209.065 481.284 209.006 480.225C208.947 479.166 209.308 478.127 210.009 477.335L249.064 433.335C249.412 432.943 249.833 432.624 250.303 432.396C250.773 432.168 251.283 432.036 251.804 432.006C252.325 431.977 252.846 432.051 253.339 432.225C253.832 432.398 254.285 432.668 254.674 433.018C255.063 433.368 255.38 433.792 255.607 434.265C255.833 434.738 255.965 435.252 255.994 435.777C256.023 436.301 255.949 436.826 255.777 437.322C255.605 437.818 255.337 438.275 254.989 438.667L215.934 482.667C215.232 483.457 214.246 483.934 213.194 483.994C212.142 484.053 211.11 483.69 210.324 482.984Z" fill="#6C63FF"/>
    <path d="M536 555.442C536 562.743 534.286 568.332 534.495 572.798C522.74 577.955 510.654 582.311 498.318 585.838C496.923 586.239 495.528 586.619 494.123 587C486.519 563.605 478.905 542.182 475.905 539.909C469.038 534.731 465.6 556.153 465.6 550.975C465.6 545.798 469.038 545.798 460.457 538.897C451.867 531.997 457.019 500.94 457.019 500.94L445 469.883L458.444 420.348L475.905 356H493.076C493.076 356 493.584 356.371 494.432 357.062C498.727 360.587 511.683 372.365 510.248 385.334C509.819 389.2 510.776 400.437 512.44 415.4C517.503 460.578 529.133 509.693 529.133 522.653C529.133 539.909 536 545.087 536 555.442Z" fill="#E6E6E6"/>
    <path d="M522.104 415.703C522.084 415.653 522.074 415.613 522.054 415.573C521.669 414.532 521.219 413.516 520.708 412.532C517.805 407.06 520.877 398.658 517.606 389.375C512.319 374.331 505.876 365.458 496.43 357.506C496.151 357.266 495.871 357.036 495.582 356.795L495.572 356.785C489.268 351.594 481.668 346.743 472.232 340.701C470.267 339.44 468.212 338.13 466.078 336.75C463.325 334.979 463.474 329.077 463.634 322.836C463.814 315.903 464.003 308.721 460.612 304.24L460.392 303.95L460.043 303.86C448.416 301.553 436.557 300.637 424.714 301.129H424.704C419.676 301.316 414.682 302.051 409.812 303.32C409.453 303.42 409.094 303.52 408.745 303.64C408.476 303.71 408.206 303.8 407.937 303.89L407.717 303.97L407.548 304.13C404.266 307.421 403.508 313.323 403.149 319.474V319.485C403.079 320.605 403.02 321.725 402.97 322.846C402.69 328.827 402.431 334.479 400.237 336.93C395.342 342.491 389.426 347.055 382.811 350.374C372.508 355.475 364.359 355.315 364.239 355.315L363.291 355.285L363.202 356.225C356.359 369.299 356.618 403.029 356.409 439.15C356.399 441.16 356.386 443.181 356.369 445.212C356.249 462.036 355.93 479.152 354.673 494.746C354.125 501.448 353.417 507.86 352.469 513.852C347.861 543.03 326.984 518.803 317 538.219C317.328 540.128 317.881 541.992 318.646 543.771C319.793 544.451 320.97 545.111 322.137 545.771C327.314 548.662 332.587 551.359 337.956 553.864C338.256 554.004 338.555 554.144 338.854 554.274C348.703 558.844 358.854 562.727 369.236 565.897C371.261 566.517 373.286 567.107 375.33 567.668C393.418 572.675 412.042 575.473 430.798 576C430.874 575.991 430.951 575.988 431.028 575.99C453.21 575.375 475.247 572.189 496.699 566.497C496.998 566.417 497.298 566.337 497.597 566.257C499.003 565.877 500.4 565.497 501.796 565.097C514.143 561.574 526.239 557.223 538.003 552.073C538.016 552.512 538.059 552.95 538.133 553.383C538.143 553.525 538.163 553.665 538.193 553.803C538.213 553.643 538.233 553.483 538.243 553.323C538.303 552.853 538.352 552.373 538.402 551.893C544.507 492.195 531.829 441.51 522.104 415.703Z" fill="#3F3D56"/>
    <path d="M384.862 268.869C390.967 280.033 400.693 288.785 412.438 293.684C424.182 298.583 437.244 299.336 449.474 295.819C461.704 292.302 472.371 284.726 479.719 274.337C487.067 263.949 490.658 251.368 489.901 238.666C489.143 225.964 484.082 213.899 475.551 204.457C467.02 195.016 455.528 188.761 442.967 186.723C430.406 184.685 417.525 186.985 406.447 193.245C395.368 199.505 386.751 209.351 382.016 221.161C381.76 221.802 381.529 222.443 381.298 223.11C378.621 230.555 377.555 238.484 378.169 246.372C378.783 254.26 381.064 261.928 384.862 268.869V268.869Z" fill="#FFB6B6"/>
    <path d="M376.78 223C379.191 216.289 378.139 219.785 380.577 213.099C378.986 219.019 381.5 222.336 381.269 223H448V184.416C428.45 176.709 409.337 170.15 397.792 184.416C387.504 184.416 377.637 188.481 370.362 195.717C363.088 202.953 359 212.767 359 223H376.78Z" fill="#2F2E41"/>
    <path d="M400.113 331C400.165 330.282 400.241 329.539 400.343 328.821C401.059 323.541 402.848 318.466 404.662 313.442C406.579 308.033 408.521 302.599 410.463 297.19C407.962 307.008 408.725 317.376 412.636 326.719C423.855 317.953 416.775 297.908 431.444 297.908C466.711 297.908 503 269.225 503 233.826C503 198.453 487.871 172 452.605 172C417.312 172 388.69 188.2 388 223.573C431.444 233.826 391.91 327.412 400.113 331Z" fill="#2F2E41"/>
    <path d="M499 229C521.644 229 540 210.644 540 188C540 165.356 521.644 147 499 147C476.356 147 458 165.356 458 188C458 210.644 476.356 229 499 229Z" fill="#2F2E41"/>
    <path d="M563 422.487C562.86 424.602 562.737 426.855 562.63 429.244C560.512 474.248 562.341 534.832 548.062 567.706C544.865 569.46 541.634 571.138 538.37 572.738C538.24 572.799 538.12 572.859 538.01 572.919C537.131 573.35 536.252 573.771 535.373 574.172C535.341 574.2 535.303 574.22 535.263 574.232C525.607 578.81 515.656 582.732 505.477 585.972C504.228 586.373 502.969 586.754 501.71 587.135C501.44 587.215 501.171 587.295 500.901 587.376C481.723 593.066 461.898 596.263 441.909 596.89C440.87 596.92 439.851 596.94 438.861 596.96C438.512 596.97 438.172 596.98 437.832 596.98C436.713 596.99 435.604 597 434.485 597C432.227 597 429.979 596.967 427.741 596.9C408.952 596.371 390.295 593.567 372.176 588.549C370.128 587.987 368.099 587.396 366.071 586.774C355.671 583.597 345.502 579.705 335.636 575.125C335.336 574.994 335.036 574.854 334.737 574.713C329.361 572.207 324.079 569.504 318.889 566.603C317.72 565.941 316.541 565.28 315.392 564.598C314.626 562.815 314.072 560.947 313.744 559.034C311.476 548.096 309.657 555.475 308.358 532.717C307.169 511.854 306.41 490.931 306.13 478.97C306.04 475.782 306.01 473.226 306 471.481C307.059 463.882 324.085 455.26 348.915 447.069C351.263 446.297 353.691 445.525 356.179 444.764C362.894 442.688 370.068 440.653 377.562 438.688C396.646 433.675 417.839 429.074 438.871 425.274C449.253 423.409 459.595 421.735 469.636 420.311C487.252 417.805 503.918 416.071 518.177 415.359C519.546 415.289 520.885 415.229 522.203 415.188C523.622 415.128 525.011 415.088 526.37 415.058C546.913 414.607 560.942 416.752 563 422.487Z" fill="#2F2E41"/>
    <path opacity="0.2" d="M563 422.441C562.86 424.544 562.737 426.783 562.63 429.157C547.063 412.437 379.36 487.13 308.358 532C307.169 511.264 306.41 490.468 306.13 478.581C306.04 475.412 306.01 472.871 306 471.137C307.059 463.584 324.085 455.015 348.915 446.874C351.263 446.107 353.691 445.34 356.179 444.582C362.894 442.52 370.068 440.497 377.562 438.544C396.646 433.562 417.839 428.988 438.871 425.212C449.253 423.358 459.595 421.694 469.636 420.279C487.252 417.788 503.918 416.064 518.177 415.357C519.546 415.287 520.885 415.227 522.203 415.187C523.622 415.127 525.011 415.088 526.37 415.058C546.913 414.609 560.942 416.742 563 422.441Z" fill="black"/>
    <path d="M221.827 475.101C223.394 477.069 225.376 478.671 227.633 479.794C229.89 480.917 232.366 481.533 234.888 481.6C237.409 481.667 239.915 481.182 242.229 480.18C244.542 479.178 246.606 477.683 248.277 475.801L305 499L298.879 467.858L245.952 450.602C242.59 448.017 238.393 446.75 234.156 447.041C229.919 447.332 225.936 449.16 222.962 452.18C219.989 455.2 218.23 459.201 218.021 463.425C217.812 467.65 219.166 471.804 221.827 475.101V475.101Z" fill="#FFB6B6"/>
    <path d="M411.332 344.033L411.019 344L377.757 346.405C373.534 346.711 369.425 347.907 365.702 349.915C361.979 351.923 358.727 354.697 356.162 358.053C354.97 359.608 353.939 361.278 353.082 363.039L353.074 363.044C350.207 368.888 349.342 375.508 350.614 381.888L366.273 460.406L328.595 456.996L314.841 459.338L298.611 452.815L265.307 453.38L264.535 455.922L257.548 478.992L257 480.804L307.856 512.726L322.6 508.258L329.546 513.573L329.879 513.582L343.653 513.853L402.394 515L418.45 486.665L420.959 482.223C439.607 440.611 444.209 411.562 442.749 391.55C441.984 380.976 439.529 372.939 436.558 366.881C427.371 348.163 411.978 344.191 411.332 344.033Z" fill="#3F3D56"/>
    <path d="M503.925 224.058C496.16 222.304 488.963 218.609 482.998 213.316C477.033 208.023 472.495 201.302 469.804 193.777C467.402 186.777 466.495 179.09 462.463 172.86C468.606 164.384 473.531 155.083 477.095 145.229C478.475 141.415 481.706 134.49 476.229 132.391C471.865 130.719 466.908 134.754 464.321 137.938C462.356 140.351 460.947 143.171 460.194 146.196C459.302 142.238 458.41 138.28 457.518 134.322C457.405 133.942 457.15 133.621 456.807 133.426C456.464 133.23 456.059 133.174 455.676 133.271C448.366 134.523 443.064 141.325 442.143 148.489C441.64 152.177 442.475 155.924 444.495 159.044C446.843 162.634 450.282 165.208 453.555 167.883C457.035 170.728 459.985 173.758 461.856 177.918C463.801 182.242 464.677 186.974 465.966 191.514C468.415 200.235 473.16 208.13 479.7 214.368C486.24 220.606 494.334 224.956 503.128 226.96C505.007 227.373 505.81 224.472 503.925 224.058ZM462.642 152.11C462.406 148.33 463.401 144.575 465.475 141.411C466.512 139.807 467.813 138.391 469.322 137.224C470.752 136.126 472.862 134.672 474.754 135.075C477.208 135.598 476.22 138.351 475.699 140.01C475.011 142.2 474.255 144.367 473.431 146.51C471.825 150.672 469.961 154.729 467.85 158.657C466.753 160.701 465.582 162.702 464.359 164.67C463.515 160.929 462.672 157.188 461.829 153.446C462.094 153.348 462.319 153.163 462.467 152.921C462.615 152.678 462.676 152.392 462.642 152.11V152.11ZM445.149 152.709C444.659 149.29 445.37 145.807 447.158 142.857C448.947 139.908 451.702 137.676 454.951 136.546C457.328 147.094 459.706 157.642 462.083 168.189C461.592 168.916 461.086 169.633 460.579 170.348C460.446 170.195 460.325 170.036 460.186 169.885C455.2 164.432 446.504 160.715 445.149 152.709V152.709Z" fill="#6C63FF"/>
</svg>