<svg width="1440" height="240" viewBox="0 0 1440 240" fill="none" xmlns="http://www.w3.org/2000/svg">
<g clip-path="url(#clip0_1_1841)">
<rect width="1440" height="240" fill="#411465"/>
<path d="M344.76 116V111.24H332V106.74L341.22 87.2H346.72L337.5 106.74H344.76V99.24H349.64V106.74H352.34V111.24H349.64V116H344.76ZM367.496 116.6C365.456 116.6 363.656 116.167 362.096 115.3C360.536 114.42 359.316 113.2 358.436 111.64C357.569 110.08 357.136 108.28 357.136 106.24V96.96C357.136 94.92 357.569 93.12 358.436 91.56C359.316 90 360.536 88.7867 362.096 87.92C363.656 87.04 365.456 86.6 367.496 86.6C369.536 86.6 371.329 87.04 372.876 87.92C374.436 88.7867 375.656 90 376.536 91.56C377.416 93.12 377.856 94.92 377.856 96.96V106.24C377.856 108.28 377.416 110.08 376.536 111.64C375.656 113.2 374.436 114.42 372.876 115.3C371.329 116.167 369.536 116.6 367.496 116.6ZM367.496 112.02C368.509 112.02 369.429 111.78 370.256 111.3C371.083 110.807 371.736 110.153 372.216 109.34C372.696 108.513 372.936 107.593 372.936 106.58V96.6C372.936 95.5733 372.696 94.6533 372.216 93.84C371.736 93.0133 371.083 92.36 370.256 91.88C369.429 91.3867 368.509 91.14 367.496 91.14C366.483 91.14 365.563 91.3867 364.736 91.88C363.909 92.36 363.256 93.0133 362.776 93.84C362.296 94.6533 362.056 95.5733 362.056 96.6V106.58C362.056 107.593 362.296 108.513 362.776 109.34C363.256 110.153 363.909 110.807 364.736 111.3C365.563 111.78 366.483 112.02 367.496 112.02ZM383.464 116V87.2H387.804L397.764 107.6L407.724 87.2H412.064V116H407.564V97.54L398.724 116H396.804L387.984 97.54V116H383.464Z" fill="white"/>
<path d="M288.4 162V147.6H296.67V149.07H289.87V154.07H295.47V155.53H289.87V162H288.4ZM297.283 162L302.243 147.6H304.193L309.153 162H307.623L302.913 148.42H303.493L298.813 162H297.283ZM299.493 158.51V157.13H306.933V158.51H299.493ZM313.212 162L308.252 147.6H309.782L314.172 160.33L318.592 147.6H320.122L315.162 162H313.212ZM321.823 162V147.6H323.293V162H321.823ZM332.121 162.3C330.687 162.3 329.477 161.983 328.491 161.35C327.504 160.71 326.757 159.827 326.251 158.7C325.744 157.573 325.491 156.273 325.491 154.8C325.491 153.327 325.744 152.027 326.251 150.9C326.757 149.773 327.504 148.893 328.491 148.26C329.477 147.62 330.687 147.3 332.121 147.3C333.794 147.3 335.161 147.73 336.221 148.59C337.281 149.443 338.007 150.59 338.401 152.03L336.901 152.42C336.594 151.28 336.044 150.377 335.251 149.71C334.457 149.043 333.414 148.71 332.121 148.71C330.994 148.71 330.057 148.967 329.311 149.48C328.564 149.993 328.001 150.71 327.621 151.63C327.247 152.543 327.054 153.6 327.041 154.8C327.034 156 327.217 157.057 327.591 157.97C327.971 158.883 328.537 159.6 329.291 160.12C330.051 160.633 330.994 160.89 332.121 160.89C333.414 160.89 334.457 160.557 335.251 159.89C336.044 159.217 336.594 158.313 336.901 157.18L338.401 157.57C338.007 159.01 337.281 160.16 336.221 161.02C335.161 161.873 333.794 162.3 332.121 162.3ZM346.437 162.3C345.004 162.3 343.794 161.983 342.807 161.35C341.82 160.71 341.074 159.827 340.567 158.7C340.06 157.573 339.807 156.273 339.807 154.8C339.807 153.327 340.06 152.027 340.567 150.9C341.074 149.773 341.82 148.893 342.807 148.26C343.794 147.62 345.004 147.3 346.437 147.3C347.877 147.3 349.087 147.62 350.067 148.26C351.054 148.893 351.8 149.773 352.307 150.9C352.82 152.027 353.077 153.327 353.077 154.8C353.077 156.273 352.82 157.573 352.307 158.7C351.8 159.827 351.054 160.71 350.067 161.35C349.087 161.983 347.877 162.3 346.437 162.3ZM346.437 160.89C347.564 160.89 348.504 160.633 349.257 160.12C350.01 159.607 350.574 158.893 350.947 157.98C351.327 157.06 351.517 156 351.517 154.8C351.517 153.6 351.327 152.543 350.947 151.63C350.574 150.717 350.01 150.003 349.257 149.49C348.504 148.977 347.564 148.717 346.437 148.71C345.31 148.71 344.374 148.967 343.627 149.48C342.88 149.993 342.317 150.71 341.937 151.63C341.564 152.543 341.374 153.6 341.367 154.8C341.36 156 341.544 157.057 341.917 157.97C342.297 158.877 342.864 159.59 343.617 160.11C344.37 160.623 345.31 160.883 346.437 160.89ZM355.08 162V147.6H356.56L364.49 159.4V147.6H365.97V162H364.49L356.56 150.19V162H355.08ZM378.605 162.3C377.172 162.3 375.962 161.983 374.975 161.35C373.988 160.71 373.242 159.827 372.735 158.7C372.228 157.573 371.975 156.273 371.975 154.8C371.975 153.327 372.228 152.027 372.735 150.9C373.242 149.773 373.988 148.893 374.975 148.26C375.962 147.62 377.172 147.3 378.605 147.3C380.278 147.3 381.645 147.73 382.705 148.59C383.765 149.443 384.492 150.59 384.885 152.03L383.385 152.42C383.078 151.28 382.528 150.377 381.735 149.71C380.942 149.043 379.898 148.71 378.605 148.71C377.478 148.71 376.542 148.967 375.795 149.48C375.048 149.993 374.485 150.71 374.105 151.63C373.732 152.543 373.538 153.6 373.525 154.8C373.518 156 373.702 157.057 374.075 157.97C374.455 158.883 375.022 159.6 375.775 160.12C376.535 160.633 377.478 160.89 378.605 160.89C379.898 160.89 380.942 160.557 381.735 159.89C382.528 159.217 383.078 158.313 383.385 157.18L384.885 157.57C384.492 159.01 383.765 160.16 382.705 161.02C381.645 161.873 380.278 162.3 378.605 162.3ZM387.091 162V147.6H392.651C392.791 147.6 392.948 147.607 393.121 147.62C393.301 147.627 393.481 147.647 393.661 147.68C394.415 147.793 395.051 148.057 395.571 148.47C396.098 148.877 396.495 149.39 396.761 150.01C397.035 150.63 397.171 151.317 397.171 152.07C397.171 153.157 396.885 154.1 396.311 154.9C395.738 155.7 394.918 156.203 393.851 156.41L393.341 156.53H388.561V162H387.091ZM395.811 162L392.971 156.14L394.381 155.6L397.501 162H395.811ZM388.561 155.13H392.611C392.731 155.13 392.871 155.123 393.031 155.11C393.191 155.097 393.348 155.073 393.501 155.04C393.995 154.933 394.398 154.73 394.711 154.43C395.031 154.13 395.268 153.773 395.421 153.36C395.581 152.947 395.661 152.517 395.661 152.07C395.661 151.623 395.581 151.193 395.421 150.78C395.268 150.36 395.031 150 394.711 149.7C394.398 149.4 393.995 149.197 393.501 149.09C393.348 149.057 393.191 149.037 393.031 149.03C392.871 149.017 392.731 149.01 392.611 149.01H388.561V155.13ZM399.709 162V147.6H408.709V149.01H401.179V153.99H407.509V155.4H401.179V160.59H408.709V162H399.709ZM410.115 162L415.075 147.6H417.025L421.985 162H420.455L415.745 148.42H416.325L411.645 162H410.115ZM412.325 158.51V157.13H419.765V158.51H412.325ZM426.429 162V149.01H421.399V147.6H432.929V149.01H427.899V162H426.429ZM434.533 162V147.6H443.533V149.01H436.003V153.99H442.333V155.4H436.003V160.59H443.533V162H434.533ZM445.939 162V147.6H450.309C450.462 147.6 450.722 147.603 451.089 147.61C451.462 147.617 451.819 147.643 452.159 147.69C453.252 147.843 454.166 148.25 454.899 148.91C455.632 149.57 456.182 150.41 456.549 151.43C456.916 152.45 457.099 153.573 457.099 154.8C457.099 156.027 456.916 157.15 456.549 158.17C456.182 159.19 455.632 160.03 454.899 160.69C454.166 161.35 453.252 161.757 452.159 161.91C451.826 161.95 451.469 161.977 451.089 161.99C450.709 161.997 450.449 162 450.309 162H445.939ZM447.459 160.59H450.309C450.582 160.59 450.876 160.583 451.189 160.57C451.509 160.55 451.782 160.517 452.009 160.47C452.849 160.323 453.526 159.983 454.039 159.45C454.559 158.917 454.939 158.25 455.179 157.45C455.419 156.643 455.539 155.76 455.539 154.8C455.539 153.833 455.419 152.947 455.179 152.14C454.939 151.333 454.559 150.667 454.039 150.14C453.519 149.613 452.842 149.277 452.009 149.13C451.782 149.083 451.506 149.053 451.179 149.04C450.859 149.02 450.569 149.01 450.309 149.01H447.459V160.59Z" fill="white"/>
<path d="M685.8 116V92.46L680.4 95.76V90.44L685.8 87.2H690.72V116H685.8ZM706.879 116.6C705.412 116.6 704.046 116.3 702.779 115.7C701.512 115.087 700.419 114.247 699.499 113.18C698.592 112.113 697.939 110.873 697.539 109.46L702.179 108.22C702.366 108.993 702.706 109.66 703.199 110.22C703.706 110.78 704.292 111.213 704.959 111.52C705.639 111.827 706.339 111.98 707.059 111.98C707.992 111.98 708.846 111.753 709.619 111.3C710.392 110.847 711.006 110.24 711.459 109.48C711.912 108.707 712.139 107.853 712.139 106.92C712.139 105.987 711.906 105.14 711.439 104.38C710.986 103.607 710.372 103 709.599 102.56C708.826 102.107 707.979 101.88 707.059 101.88C705.952 101.88 705.032 102.08 704.299 102.48C703.579 102.88 703.026 103.307 702.639 103.76L698.519 102.44L699.399 87.2H715.039V91.72H701.979L703.779 90.02L703.139 100.62L702.259 99.54C703.006 98.86 703.872 98.3533 704.859 98.02C705.846 97.6867 706.799 97.52 707.719 97.52C709.519 97.52 711.112 97.9333 712.499 98.76C713.899 99.5733 714.992 100.687 715.779 102.1C716.579 103.513 716.979 105.12 716.979 106.92C716.979 108.72 716.512 110.353 715.579 111.82C714.646 113.273 713.412 114.433 711.879 115.3C710.359 116.167 708.692 116.6 706.879 116.6ZM728.537 110.64V103.48H721.377V99.7H728.537V92.56H732.317V99.7H739.437V103.48H732.317V110.64H728.537Z" fill="white"/>
<path d="M610.83 162V155.97L606 147.6H607.7L611.57 154.29L615.42 147.6H617.12L612.31 155.97V162H610.83ZM618.513 162V147.6H627.513V149.01H619.983V153.99H626.313V155.4H619.983V160.59H627.513V162H618.513ZM628.92 162L633.88 147.6H635.83L640.79 162H639.26L634.55 148.42H635.13L630.45 162H628.92ZM631.13 158.51V157.13H638.57V158.51H631.13ZM642.595 162V147.6H648.155C648.295 147.6 648.452 147.607 648.625 147.62C648.805 147.627 648.985 147.647 649.165 147.68C649.919 147.793 650.555 148.057 651.075 148.47C651.602 148.877 651.999 149.39 652.265 150.01C652.539 150.63 652.675 151.317 652.675 152.07C652.675 153.157 652.389 154.1 651.815 154.9C651.242 155.7 650.422 156.203 649.355 156.41L648.845 156.53H644.065V162H642.595ZM651.315 162L648.475 156.14L649.885 155.6L653.005 162H651.315ZM644.065 155.13H648.115C648.235 155.13 648.375 155.123 648.535 155.11C648.695 155.097 648.852 155.073 649.005 155.04C649.499 154.933 649.902 154.73 650.215 154.43C650.535 154.13 650.772 153.773 650.925 153.36C651.085 152.947 651.165 152.517 651.165 152.07C651.165 151.623 651.085 151.193 650.925 150.78C650.772 150.36 650.535 150 650.215 149.7C649.902 149.4 649.499 149.197 649.005 149.09C648.852 149.057 648.695 149.037 648.535 149.03C648.375 149.017 648.235 149.01 648.115 149.01H644.065V155.13ZM660.213 162.3C659.206 162.3 658.299 162.133 657.493 161.8C656.693 161.46 656.029 160.98 655.503 160.36C654.983 159.74 654.643 159.003 654.483 158.15L655.983 157.9C656.223 158.833 656.729 159.567 657.503 160.1C658.276 160.627 659.199 160.89 660.273 160.89C660.979 160.89 661.613 160.78 662.173 160.56C662.733 160.333 663.173 160.013 663.493 159.6C663.813 159.187 663.973 158.697 663.973 158.13C663.973 157.757 663.906 157.44 663.773 157.18C663.639 156.913 663.463 156.693 663.243 156.52C663.023 156.347 662.783 156.203 662.523 156.09C662.263 155.97 662.009 155.873 661.763 155.8L658.113 154.71C657.673 154.583 657.266 154.423 656.893 154.23C656.519 154.03 656.193 153.793 655.913 153.52C655.639 153.24 655.426 152.913 655.273 152.54C655.119 152.167 655.043 151.74 655.043 151.26C655.043 150.447 655.256 149.743 655.683 149.15C656.109 148.557 656.693 148.1 657.433 147.78C658.173 147.46 659.016 147.303 659.963 147.31C660.923 147.31 661.779 147.48 662.533 147.82C663.293 148.16 663.919 148.647 664.413 149.28C664.906 149.907 665.233 150.65 665.393 151.51L663.853 151.79C663.753 151.163 663.523 150.62 663.163 150.16C662.803 149.7 662.343 149.347 661.783 149.1C661.229 148.847 660.619 148.717 659.953 148.71C659.306 148.71 658.729 148.82 658.223 149.04C657.723 149.253 657.326 149.547 657.033 149.92C656.739 150.293 656.593 150.72 656.593 151.2C656.593 151.687 656.726 152.077 656.993 152.37C657.266 152.663 657.599 152.893 657.993 153.06C658.393 153.227 658.779 153.363 659.153 153.47L661.973 154.3C662.266 154.38 662.609 154.497 663.003 154.65C663.403 154.797 663.789 155.01 664.163 155.29C664.543 155.563 664.856 155.923 665.103 156.37C665.349 156.817 665.473 157.383 665.473 158.07C665.473 158.737 665.339 159.333 665.073 159.86C664.813 160.387 664.443 160.83 663.963 161.19C663.489 161.55 662.933 161.823 662.293 162.01C661.659 162.203 660.966 162.3 660.213 162.3ZM677.371 162.3C675.937 162.3 674.727 161.983 673.741 161.35C672.754 160.71 672.007 159.827 671.501 158.7C670.994 157.573 670.741 156.273 670.741 154.8C670.741 153.327 670.994 152.027 671.501 150.9C672.007 149.773 672.754 148.893 673.741 148.26C674.727 147.62 675.937 147.3 677.371 147.3C678.811 147.3 680.021 147.62 681.001 148.26C681.987 148.893 682.734 149.773 683.241 150.9C683.754 152.027 684.011 153.327 684.011 154.8C684.011 156.273 683.754 157.573 683.241 158.7C682.734 159.827 681.987 160.71 681.001 161.35C680.021 161.983 678.811 162.3 677.371 162.3ZM677.371 160.89C678.497 160.89 679.437 160.633 680.191 160.12C680.944 159.607 681.507 158.893 681.881 157.98C682.261 157.06 682.451 156 682.451 154.8C682.451 153.6 682.261 152.543 681.881 151.63C681.507 150.717 680.944 150.003 680.191 149.49C679.437 148.977 678.497 148.717 677.371 148.71C676.244 148.71 675.307 148.967 674.561 149.48C673.814 149.993 673.251 150.71 672.871 151.63C672.497 152.543 672.307 153.6 672.301 154.8C672.294 156 672.477 157.057 672.851 157.97C673.231 158.877 673.797 159.59 674.551 160.11C675.304 160.623 676.244 160.883 677.371 160.89ZM686.013 162V147.6H694.283V149.07H687.483V154.07H693.083V155.53H687.483V162H686.013ZM700.095 162V147.6H709.095V149.01H701.565V153.99H707.895V155.4H701.565V160.59H709.095V162H700.095ZM710.302 162L715.292 154.71L710.432 147.6H712.212L716.162 153.48L720.112 147.6H721.902L717.042 154.71L722.022 162H720.242L716.162 155.95L712.092 162H710.302ZM723.63 162V147.6H729.19C729.33 147.6 729.487 147.607 729.66 147.62C729.84 147.627 730.02 147.647 730.2 147.68C730.954 147.793 731.59 148.057 732.11 148.47C732.637 148.877 733.034 149.39 733.3 150.01C733.574 150.63 733.71 151.317 733.71 152.07C733.71 152.817 733.574 153.5 733.3 154.12C733.027 154.74 732.627 155.257 732.1 155.67C731.58 156.077 730.947 156.337 730.2 156.45C730.02 156.477 729.84 156.497 729.66 156.51C729.487 156.523 729.33 156.53 729.19 156.53H725.1V162H723.63ZM725.1 155.13H729.15C729.27 155.13 729.41 155.123 729.57 155.11C729.73 155.097 729.887 155.073 730.04 155.04C730.534 154.933 730.937 154.73 731.25 154.43C731.57 154.13 731.807 153.773 731.96 153.36C732.12 152.947 732.2 152.517 732.2 152.07C732.2 151.623 732.12 151.193 731.96 150.78C731.807 150.36 731.57 150 731.25 149.7C730.937 149.4 730.534 149.197 730.04 149.09C729.887 149.057 729.73 149.037 729.57 149.03C729.41 149.017 729.27 149.01 729.15 149.01H725.1V155.13ZM735.701 162V147.6H744.701V149.01H737.171V153.99H743.501V155.4H737.171V160.59H744.701V162H735.701ZM747.107 162V147.6H752.667C752.807 147.6 752.964 147.607 753.137 147.62C753.317 147.627 753.497 147.647 753.677 147.68C754.43 147.793 755.067 148.057 755.587 148.47C756.114 148.877 756.51 149.39 756.777 150.01C757.05 150.63 757.187 151.317 757.187 152.07C757.187 153.157 756.9 154.1 756.327 154.9C755.754 155.7 754.934 156.203 753.867 156.41L753.357 156.53H748.577V162H747.107ZM755.827 162L752.987 156.14L754.397 155.6L757.517 162H755.827ZM748.577 155.13H752.627C752.747 155.13 752.887 155.123 753.047 155.11C753.207 155.097 753.364 155.073 753.517 155.04C754.01 154.933 754.414 154.73 754.727 154.43C755.047 154.13 755.284 153.773 755.437 153.36C755.597 152.947 755.677 152.517 755.677 152.07C755.677 151.623 755.597 151.193 755.437 150.78C755.284 150.36 755.047 150 754.727 149.7C754.414 149.4 754.01 149.197 753.517 149.09C753.364 149.057 753.207 149.037 753.047 149.03C752.887 149.017 752.747 149.01 752.627 149.01H748.577V155.13ZM759.924 162V147.6H761.394V162H759.924ZM764.392 162V147.6H773.392V149.01H765.862V153.99H772.192V155.4H765.862V160.59H773.392V162H764.392ZM775.798 162V147.6H777.278L785.208 159.4V147.6H786.688V162H785.208L777.278 150.19V162H775.798ZM795.32 162.3C793.887 162.3 792.677 161.983 791.69 161.35C790.703 160.71 789.957 159.827 789.45 158.7C788.943 157.573 788.69 156.273 788.69 154.8C788.69 153.327 788.943 152.027 789.45 150.9C789.957 149.773 790.703 148.893 791.69 148.26C792.677 147.62 793.887 147.3 795.32 147.3C796.993 147.3 798.36 147.73 799.42 148.59C800.48 149.443 801.207 150.59 801.6 152.03L800.1 152.42C799.793 151.28 799.243 150.377 798.45 149.71C797.657 149.043 796.613 148.71 795.32 148.71C794.193 148.71 793.257 148.967 792.51 149.48C791.763 149.993 791.2 150.71 790.82 151.63C790.447 152.543 790.253 153.6 790.24 154.8C790.233 156 790.417 157.057 790.79 157.97C791.17 158.883 791.737 159.6 792.49 160.12C793.25 160.633 794.193 160.89 795.32 160.89C796.613 160.89 797.657 160.557 798.45 159.89C799.243 159.217 799.793 158.313 800.1 157.18L801.6 157.57C801.207 159.01 800.48 160.16 799.42 161.02C798.36 161.873 796.993 162.3 795.32 162.3ZM803.806 162V147.6H812.806V149.01H805.276V153.99H811.606V155.4H805.276V160.59H812.806V162H803.806Z" fill="white"/>
<path d="M1030.84 116.6C1029.37 116.6 1028.01 116.3 1026.74 115.7C1025.47 115.087 1024.38 114.247 1023.46 113.18C1022.55 112.113 1021.9 110.873 1021.5 109.46L1026.14 108.22C1026.33 108.993 1026.67 109.66 1027.16 110.22C1027.67 110.78 1028.25 111.213 1028.92 111.52C1029.6 111.827 1030.3 111.98 1031.02 111.98C1031.95 111.98 1032.81 111.753 1033.58 111.3C1034.35 110.847 1034.97 110.24 1035.42 109.48C1035.87 108.707 1036.1 107.853 1036.1 106.92C1036.1 105.987 1035.87 105.14 1035.4 104.38C1034.95 103.607 1034.33 103 1033.56 102.56C1032.79 102.107 1031.94 101.88 1031.02 101.88C1029.91 101.88 1028.99 102.08 1028.26 102.48C1027.54 102.88 1026.99 103.307 1026.6 103.76L1022.48 102.44L1023.36 87.2H1039V91.72H1025.94L1027.74 90.02L1027.1 100.62L1026.22 99.54C1026.97 98.86 1027.83 98.3533 1028.82 98.02C1029.81 97.6867 1030.76 97.52 1031.68 97.52C1033.48 97.52 1035.07 97.9333 1036.46 98.76C1037.86 99.5733 1038.95 100.687 1039.74 102.1C1040.54 103.513 1040.94 105.12 1040.94 106.92C1040.94 108.72 1040.47 110.353 1039.54 111.82C1038.61 113.273 1037.37 114.433 1035.84 115.3C1034.32 116.167 1032.65 116.6 1030.84 116.6ZM1056.1 116.6C1054.06 116.6 1052.26 116.167 1050.7 115.3C1049.14 114.42 1047.92 113.2 1047.04 111.64C1046.17 110.08 1045.74 108.28 1045.74 106.24V96.96C1045.74 94.92 1046.17 93.12 1047.04 91.56C1047.92 90 1049.14 88.7867 1050.7 87.92C1052.26 87.04 1054.06 86.6 1056.1 86.6C1058.14 86.6 1059.93 87.04 1061.48 87.92C1063.04 88.7867 1064.26 90 1065.14 91.56C1066.02 93.12 1066.46 94.92 1066.46 96.96V106.24C1066.46 108.28 1066.02 110.08 1065.14 111.64C1064.26 113.2 1063.04 114.42 1061.48 115.3C1059.93 116.167 1058.14 116.6 1056.1 116.6ZM1056.1 112.02C1057.11 112.02 1058.03 111.78 1058.86 111.3C1059.68 110.807 1060.34 110.153 1060.82 109.34C1061.3 108.513 1061.54 107.593 1061.54 106.58V96.6C1061.54 95.5733 1061.3 94.6533 1060.82 93.84C1060.34 93.0133 1059.68 92.36 1058.86 91.88C1058.03 91.3867 1057.11 91.14 1056.1 91.14C1055.08 91.14 1054.16 91.3867 1053.34 91.88C1052.51 92.36 1051.86 93.0133 1051.38 93.84C1050.9 94.6533 1050.66 95.5733 1050.66 96.6V106.58C1050.66 107.593 1050.9 108.513 1051.38 109.34C1051.86 110.153 1052.51 110.807 1053.34 111.3C1054.16 111.78 1055.08 112.02 1056.1 112.02ZM1082.43 116.6C1080.39 116.6 1078.59 116.167 1077.03 115.3C1075.47 114.42 1074.25 113.2 1073.37 111.64C1072.5 110.08 1072.07 108.28 1072.07 106.24V96.96C1072.07 94.92 1072.5 93.12 1073.37 91.56C1074.25 90 1075.47 88.7867 1077.03 87.92C1078.59 87.04 1080.39 86.6 1082.43 86.6C1084.47 86.6 1086.26 87.04 1087.81 87.92C1089.37 88.7867 1090.59 90 1091.47 91.56C1092.35 93.12 1092.79 94.92 1092.79 96.96V106.24C1092.79 108.28 1092.35 110.08 1091.47 111.64C1090.59 113.2 1089.37 114.42 1087.81 115.3C1086.26 116.167 1084.47 116.6 1082.43 116.6ZM1082.43 112.02C1083.44 112.02 1084.36 111.78 1085.19 111.3C1086.01 110.807 1086.67 110.153 1087.15 109.34C1087.63 108.513 1087.87 107.593 1087.87 106.58V96.6C1087.87 95.5733 1087.63 94.6533 1087.15 93.84C1086.67 93.0133 1086.01 92.36 1085.19 91.88C1084.36 91.3867 1083.44 91.14 1082.43 91.14C1081.41 91.14 1080.49 91.3867 1079.67 91.88C1078.84 92.36 1078.19 93.0133 1077.71 93.84C1077.23 94.6533 1076.99 95.5733 1076.99 96.6V106.58C1076.99 107.593 1077.23 108.513 1077.71 109.34C1078.19 110.153 1078.84 110.807 1079.67 111.3C1080.49 111.78 1081.41 112.02 1082.43 112.02Z" fill="white"/>
<path d="M963.4 162V147.6H971.67V149.07H964.87V154.07H970.47V155.53H964.87V162H963.4ZM972.283 162L977.243 147.6H979.193L984.153 162H982.623L977.913 148.42H978.493L973.813 162H972.283ZM974.493 158.51V157.13H981.933V158.51H974.493ZM988.212 162L983.252 147.6H984.782L989.172 160.33L993.592 147.6H995.122L990.162 162H988.212ZM996.823 162V147.6H998.293V162H996.823ZM1007.12 162.3C1005.69 162.3 1004.48 161.983 1003.49 161.35C1002.5 160.71 1001.76 159.827 1001.25 158.7C1000.74 157.573 1000.49 156.273 1000.49 154.8C1000.49 153.327 1000.74 152.027 1001.25 150.9C1001.76 149.773 1002.5 148.893 1003.49 148.26C1004.48 147.62 1005.69 147.3 1007.12 147.3C1008.79 147.3 1010.16 147.73 1011.22 148.59C1012.28 149.443 1013.01 150.59 1013.4 152.03L1011.9 152.42C1011.59 151.28 1011.04 150.377 1010.25 149.71C1009.46 149.043 1008.41 148.71 1007.12 148.71C1005.99 148.71 1005.06 148.967 1004.31 149.48C1003.56 149.993 1003 150.71 1002.62 151.63C1002.25 152.543 1002.05 153.6 1002.04 154.8C1002.03 156 1002.22 157.057 1002.59 157.97C1002.97 158.883 1003.54 159.6 1004.29 160.12C1005.05 160.633 1005.99 160.89 1007.12 160.89C1008.41 160.89 1009.46 160.557 1010.25 159.89C1011.04 159.217 1011.59 158.313 1011.9 157.18L1013.4 157.57C1013.01 159.01 1012.28 160.16 1011.22 161.02C1010.16 161.873 1008.79 162.3 1007.12 162.3ZM1021.44 162.3C1020 162.3 1018.79 161.983 1017.81 161.35C1016.82 160.71 1016.07 159.827 1015.57 158.7C1015.06 157.573 1014.81 156.273 1014.81 154.8C1014.81 153.327 1015.06 152.027 1015.57 150.9C1016.07 149.773 1016.82 148.893 1017.81 148.26C1018.79 147.62 1020 147.3 1021.44 147.3C1022.88 147.3 1024.09 147.62 1025.07 148.26C1026.05 148.893 1026.8 149.773 1027.31 150.9C1027.82 152.027 1028.08 153.327 1028.08 154.8C1028.08 156.273 1027.82 157.573 1027.31 158.7C1026.8 159.827 1026.05 160.71 1025.07 161.35C1024.09 161.983 1022.88 162.3 1021.44 162.3ZM1021.44 160.89C1022.56 160.89 1023.5 160.633 1024.26 160.12C1025.01 159.607 1025.57 158.893 1025.95 157.98C1026.33 157.06 1026.52 156 1026.52 154.8C1026.52 153.6 1026.33 152.543 1025.95 151.63C1025.57 150.717 1025.01 150.003 1024.26 149.49C1023.5 148.977 1022.56 148.717 1021.44 148.71C1020.31 148.71 1019.37 148.967 1018.63 149.48C1017.88 149.993 1017.32 150.71 1016.94 151.63C1016.56 152.543 1016.37 153.6 1016.37 154.8C1016.36 156 1016.54 157.057 1016.92 157.97C1017.3 158.877 1017.86 159.59 1018.62 160.11C1019.37 160.623 1020.31 160.883 1021.44 160.89ZM1030.08 162V147.6H1031.56L1039.49 159.4V147.6H1040.97V162H1039.49L1031.56 150.19V162H1030.08ZM1048.77 162.3C1047.76 162.3 1046.86 162.133 1046.05 161.8C1045.25 161.46 1044.59 160.98 1044.06 160.36C1043.54 159.74 1043.2 159.003 1043.04 158.15L1044.54 157.9C1044.78 158.833 1045.29 159.567 1046.06 160.1C1046.83 160.627 1047.76 160.89 1048.83 160.89C1049.54 160.89 1050.17 160.78 1050.73 160.56C1051.29 160.333 1051.73 160.013 1052.05 159.6C1052.37 159.187 1052.53 158.697 1052.53 158.13C1052.53 157.757 1052.46 157.44 1052.33 157.18C1052.2 156.913 1052.02 156.693 1051.8 156.52C1051.58 156.347 1051.34 156.203 1051.08 156.09C1050.82 155.97 1050.57 155.873 1050.32 155.8L1046.67 154.71C1046.23 154.583 1045.82 154.423 1045.45 154.23C1045.08 154.03 1044.75 153.793 1044.47 153.52C1044.2 153.24 1043.98 152.913 1043.83 152.54C1043.68 152.167 1043.6 151.74 1043.6 151.26C1043.6 150.447 1043.81 149.743 1044.24 149.15C1044.67 148.557 1045.25 148.1 1045.99 147.78C1046.73 147.46 1047.57 147.303 1048.52 147.31C1049.48 147.31 1050.34 147.48 1051.09 147.82C1051.85 148.16 1052.48 148.647 1052.97 149.28C1053.46 149.907 1053.79 150.65 1053.95 151.51L1052.41 151.79C1052.31 151.163 1052.08 150.62 1051.72 150.16C1051.36 149.7 1050.9 149.347 1050.34 149.1C1049.79 148.847 1049.18 148.717 1048.51 148.71C1047.86 148.71 1047.29 148.82 1046.78 149.04C1046.28 149.253 1045.88 149.547 1045.59 149.92C1045.3 150.293 1045.15 150.72 1045.15 151.2C1045.15 151.687 1045.28 152.077 1045.55 152.37C1045.82 152.663 1046.16 152.893 1046.55 153.06C1046.95 153.227 1047.34 153.363 1047.71 153.47L1050.53 154.3C1050.82 154.38 1051.17 154.497 1051.56 154.65C1051.96 154.797 1052.35 155.01 1052.72 155.29C1053.1 155.563 1053.41 155.923 1053.66 156.37C1053.91 156.817 1054.03 157.383 1054.03 158.07C1054.03 158.737 1053.9 159.333 1053.63 159.86C1053.37 160.387 1053 160.83 1052.52 161.19C1052.05 161.55 1051.49 161.823 1050.85 162.01C1050.22 162.203 1049.52 162.3 1048.77 162.3ZM1060.1 162V147.6H1065.66C1065.8 147.6 1065.96 147.607 1066.13 147.62C1066.31 147.627 1066.49 147.647 1066.67 147.68C1067.42 147.793 1068.06 148.057 1068.58 148.47C1069.11 148.877 1069.5 149.39 1069.77 150.01C1070.04 150.63 1070.18 151.317 1070.18 152.07C1070.18 152.817 1070.04 153.5 1069.77 154.12C1069.5 154.74 1069.1 155.257 1068.57 155.67C1068.05 156.077 1067.42 156.337 1066.67 156.45C1066.49 156.477 1066.31 156.497 1066.13 156.51C1065.96 156.523 1065.8 156.53 1065.66 156.53H1061.57V162H1060.1ZM1061.57 155.13H1065.62C1065.74 155.13 1065.88 155.123 1066.04 155.11C1066.2 155.097 1066.36 155.073 1066.51 155.04C1067 154.933 1067.41 154.73 1067.72 154.43C1068.04 154.13 1068.28 153.773 1068.43 153.36C1068.59 152.947 1068.67 152.517 1068.67 152.07C1068.67 151.623 1068.59 151.193 1068.43 150.78C1068.28 150.36 1068.04 150 1067.72 149.7C1067.41 149.4 1067 149.197 1066.51 149.09C1066.36 149.057 1066.2 149.037 1066.04 149.03C1065.88 149.017 1065.74 149.01 1065.62 149.01H1061.57V155.13ZM1072.17 162V147.6H1081.17V149.01H1073.64V153.99H1079.97V155.4H1073.64V160.59H1081.17V162H1072.17ZM1083.58 162V147.6H1089.14C1089.28 147.6 1089.43 147.607 1089.61 147.62C1089.79 147.627 1089.97 147.647 1090.15 147.68C1090.9 147.793 1091.54 148.057 1092.06 148.47C1092.58 148.877 1092.98 149.39 1093.25 150.01C1093.52 150.63 1093.66 151.317 1093.66 152.07C1093.66 153.157 1093.37 154.1 1092.8 154.9C1092.22 155.7 1091.4 156.203 1090.34 156.41L1089.83 156.53H1085.05V162H1083.58ZM1092.3 162L1089.46 156.14L1090.87 155.6L1093.99 162H1092.3ZM1085.05 155.13H1089.1C1089.22 155.13 1089.36 155.123 1089.52 155.11C1089.68 155.097 1089.83 155.073 1089.99 155.04C1090.48 154.933 1090.88 154.73 1091.2 154.43C1091.52 154.13 1091.75 153.773 1091.91 153.36C1092.07 152.947 1092.15 152.517 1092.15 152.07C1092.15 151.623 1092.07 151.193 1091.91 150.78C1091.75 150.36 1091.52 150 1091.2 149.7C1090.88 149.4 1090.48 149.197 1089.99 149.09C1089.83 149.057 1089.68 149.037 1089.52 149.03C1089.36 149.017 1089.22 149.01 1089.1 149.01H1085.05V155.13ZM1100.2 162V147.6H1101.67V154.09H1109.63V147.6H1111.09V162H1109.63V155.5H1101.67V162H1100.2ZM1119.72 162.3C1118.28 162.3 1117.07 161.983 1116.09 161.35C1115.1 160.71 1114.35 159.827 1113.85 158.7C1113.34 157.573 1113.09 156.273 1113.09 154.8C1113.09 153.327 1113.34 152.027 1113.85 150.9C1114.35 149.773 1115.1 148.893 1116.09 148.26C1117.07 147.62 1118.28 147.3 1119.72 147.3C1121.16 147.3 1122.37 147.62 1123.35 148.26C1124.33 148.893 1125.08 149.773 1125.59 150.9C1126.1 152.027 1126.36 153.327 1126.36 154.8C1126.36 156.273 1126.1 157.573 1125.59 158.7C1125.08 159.827 1124.33 160.71 1123.35 161.35C1122.37 161.983 1121.16 162.3 1119.72 162.3ZM1119.72 160.89C1120.84 160.89 1121.78 160.633 1122.54 160.12C1123.29 159.607 1123.85 158.893 1124.23 157.98C1124.61 157.06 1124.8 156 1124.8 154.8C1124.8 153.6 1124.61 152.543 1124.23 151.63C1123.85 150.717 1123.29 150.003 1122.54 149.49C1121.78 148.977 1120.84 148.717 1119.72 148.71C1118.59 148.71 1117.65 148.967 1116.91 149.48C1116.16 149.993 1115.6 150.71 1115.22 151.63C1114.84 152.543 1114.65 153.6 1114.65 154.8C1114.64 156 1114.82 157.057 1115.2 157.97C1115.58 158.877 1116.14 159.59 1116.9 160.11C1117.65 160.623 1118.59 160.883 1119.72 160.89ZM1133.98 162.3C1132.88 162.3 1131.91 162.073 1131.06 161.62C1130.22 161.167 1129.56 160.527 1129.08 159.7C1128.6 158.873 1128.36 157.907 1128.36 156.8V147.61L1129.84 147.6V156.61C1129.84 157.357 1129.97 158.003 1130.22 158.55C1130.47 159.09 1130.8 159.537 1131.21 159.89C1131.62 160.237 1132.07 160.493 1132.56 160.66C1133.05 160.827 1133.52 160.91 1133.98 160.91C1134.45 160.91 1134.92 160.827 1135.41 160.66C1135.9 160.493 1136.34 160.237 1136.75 159.89C1137.16 159.537 1137.49 159.09 1137.74 158.55C1137.99 158.003 1138.12 157.357 1138.12 156.61V147.6H1139.6V156.8C1139.6 157.907 1139.36 158.873 1138.88 159.7C1138.4 160.52 1137.74 161.16 1136.89 161.62C1136.05 162.073 1135.08 162.3 1133.98 162.3ZM1142.4 162V147.6H1147.96C1148.1 147.6 1148.26 147.607 1148.43 147.62C1148.61 147.627 1148.79 147.647 1148.97 147.68C1149.73 147.793 1150.36 148.057 1150.88 148.47C1151.41 148.877 1151.81 149.39 1152.07 150.01C1152.35 150.63 1152.48 151.317 1152.48 152.07C1152.48 153.157 1152.2 154.1 1151.62 154.9C1151.05 155.7 1150.23 156.203 1149.16 156.41L1148.65 156.53H1143.87V162H1142.4ZM1151.12 162L1148.28 156.14L1149.69 155.6L1152.81 162H1151.12ZM1143.87 155.13H1147.92C1148.04 155.13 1148.18 155.123 1148.34 155.11C1148.5 155.097 1148.66 155.073 1148.81 155.04C1149.31 154.933 1149.71 154.73 1150.02 154.43C1150.34 154.13 1150.58 153.773 1150.73 153.36C1150.89 152.947 1150.97 152.517 1150.97 152.07C1150.97 151.623 1150.89 151.193 1150.73 150.78C1150.58 150.36 1150.34 150 1150.02 149.7C1149.71 149.4 1149.31 149.197 1148.81 149.09C1148.66 149.057 1148.5 149.037 1148.34 149.03C1148.18 149.017 1148.04 149.01 1147.92 149.01H1143.87V155.13Z" fill="white"/>
<path d="M1513.83 -21.526L1447.32 119.466L1357.97 -18.1867L1513.83 -21.526Z" fill="#FFCE31"/>
<circle cx="115" cy="184" r="9" fill="#FFCE31"/>
<circle cx="1192" cy="101" r="4" fill="#FFCE31"/>
</g>
<defs>
<clipPath id="clip0_1_1841">
<rect width="1440" height="240" fill="white"/>
</clipPath>
</defs>
</svg>
