<svg width="30" height="30" viewBox="0 0 26 20" fill="none" xmlns="http://www.w3.org/2000/svg">
<path d="M25.1875 2.45021C24.291 2.83693 23.3154 3.11525 22.3105 3.22364C23.3538 2.60383 24.1351 1.62462 24.5078 0.469739C23.5288 1.05213 22.4563 1.46051 21.3379 1.67677C20.8704 1.17704 20.3051 0.778937 19.6771 0.50726C19.049 0.235584 18.3718 0.0961569 17.6875 0.0976684C14.9189 0.0976684 12.6924 2.34181 12.6924 5.09572C12.6924 5.48243 12.7393 5.86915 12.8154 6.24122C8.66992 6.02443 4.97266 4.04396 2.51465 1.01173C2.06677 1.77672 1.83207 2.64774 1.83496 3.53419C1.83496 5.26857 2.7168 6.79786 4.06152 7.69728C3.26906 7.66607 2.49514 7.44825 1.80273 7.06154V7.12306C1.80273 9.55177 3.51953 11.5645 5.80762 12.0274C5.378 12.1389 4.93606 12.196 4.49219 12.1973C4.16699 12.1973 3.85937 12.1651 3.54883 12.1211C4.18164 14.1016 6.02441 15.5401 8.21875 15.5869C6.50195 16.9317 4.35156 17.7227 2.0166 17.7227C1.59766 17.7227 1.21094 17.708 0.80957 17.6611C3.02441 19.082 5.65234 19.9024 8.48242 19.9024C17.6699 19.9024 22.6973 12.291 22.6973 5.68458C22.6973 5.46779 22.6973 5.25099 22.6826 5.03419C23.6553 4.32228 24.5078 3.44044 25.1875 2.45021Z" fill="#F8F8F8"/>
</svg>
