<svg width="796" height="246" viewBox="0 0 796 246" fill="none" xmlns="http://www.w3.org/2000/svg">
<path d="M249.06 213.5V208.5" stroke="#BCBCBC" stroke-width="1.5" stroke-miterlimit="10" stroke-linecap="round" stroke-linejoin="round"/>
<path d="M427.06 239.5V234.5" stroke="#BCBCBC" stroke-width="1.5" stroke-miterlimit="10" stroke-linecap="round" stroke-linejoin="round"/>
<path d="M320.06 197.5V192.5" stroke="#BCBCBC" stroke-width="1.5" stroke-miterlimit="10" stroke-linecap="round" stroke-linejoin="round"/>
<path d="M251.5 211H246.5" stroke="#BCBCBC" stroke-width="1.5" stroke-miterlimit="10" stroke-linecap="round" stroke-linejoin="round"/>
<path d="M429.5 237H424.5" stroke="#BCBCBC" stroke-width="1.5" stroke-miterlimit="10" stroke-linecap="round" stroke-linejoin="round"/>
<path d="M322.5 195H317.5" stroke="#BCBCBC" stroke-width="1.5" stroke-miterlimit="10" stroke-linecap="round" stroke-linejoin="round"/>
<path d="M189 218V224C189 228 188 229 184 229H174C170 229 169 228 169 224V214C169 210 170 209 174 209H175.5C177 209 177.33 209.44 177.9 210.2L179.4 212.2C179.78 212.7 180 213 181 213H184C188 213 189 214 189 218Z" stroke="#BCBCBC" stroke-width="1.5" stroke-miterlimit="10"/>
<path d="M437 234V240C437 244 436 245 432 245H422C418 245 417 244 417 240V230C417 226 418 225 422 225H423.5C425 225 425.33 225.44 425.9 226.2L427.4 228.2C427.78 228.7 428 229 429 229H432C436 229 437 230 437 234Z" stroke="#BCBCBC" stroke-width="1.5" stroke-miterlimit="10"/>
<path d="M330 192V198C330 202 329 203 325 203H315C311 203 310 202 310 198V188C310 184 311 183 315 183H316.5C318 183 318.33 183.44 318.9 184.2L320.4 186.2C320.78 186.7 321 187 322 187H325C329 187 330 188 330 192Z" stroke="#BCBCBC" stroke-width="1.5" stroke-miterlimit="10"/>
<path d="M571.6 147.5V142.5" stroke="#BCBCBC" stroke-width="1.5" stroke-miterlimit="10" stroke-linecap="round" stroke-linejoin="round"/>
<path d="M574.04 145H569.04" stroke="#BCBCBC" stroke-width="1.5" stroke-miterlimit="10" stroke-linecap="round" stroke-linejoin="round"/>
<path d="M581.54 142V148C581.54 152 580.54 153 576.54 153H566.54C562.54 153 561.54 152 561.54 148V138C561.54 134 562.54 133 566.54 133H568.04C569.54 133 569.87 133.44 570.44 134.2L571.94 136.2C572.32 136.7 572.54 137 573.54 137H576.54C580.54 137 581.54 138 581.54 142Z" stroke="#BCBCBC" stroke-width="1.5" stroke-miterlimit="10"/>
<path d="M103.426 111.736L107.436 108.749" stroke="#BCBCBC" stroke-width="1.5" stroke-miterlimit="10" stroke-linecap="round" stroke-linejoin="round"/>
<path d="M106.889 112.2L103.902 108.19" stroke="#BCBCBC" stroke-width="1.5" stroke-miterlimit="10" stroke-linecap="round" stroke-linejoin="round"/>
<path d="M113.775 116.422L108.963 120.006C105.755 122.396 104.356 122.191 101.967 118.983L95.993 110.964C93.6036 107.756 93.8083 106.356 97.0162 103.967L105.036 97.9933C108.244 95.6039 109.643 95.8086 112.033 99.0165L112.929 100.219C113.825 101.422 113.669 101.95 113.4 102.861L112.692 105.259C112.518 105.862 112.409 106.218 113.006 107.02L114.798 109.426C117.188 112.634 116.983 114.033 113.775 116.422Z" stroke="#BCBCBC" stroke-width="1.5" stroke-miterlimit="10"/>
<path d="M218.87 26.8737L223.408 24.7742" stroke="#BCBCBC" stroke-width="1.5" stroke-miterlimit="10" stroke-linecap="round" stroke-linejoin="round"/>
<path d="M222.164 28.0383L220.064 23.5005" stroke="#BCBCBC" stroke-width="1.5" stroke-miterlimit="10" stroke-linecap="round" stroke-linejoin="round"/>
<path d="M228.036 33.5855L222.591 36.105C218.96 37.7846 217.633 37.2969 215.953 33.6667L211.754 24.591C210.074 20.9607 210.562 19.6332 214.192 17.9536L223.268 13.7546C226.898 12.0749 228.226 12.5626 229.905 16.1929L230.535 17.5542C231.165 18.9156 230.904 19.3998 230.454 20.2363L229.269 22.4374C228.974 22.9923 228.795 23.3179 229.215 24.2255L230.474 26.9482C232.154 30.5784 231.666 31.9059 228.036 33.5855Z" stroke="#BCBCBC" stroke-width="1.5" stroke-miterlimit="10"/>
<path d="M21.0938 13.8837L24.8019 18.6007C27.274 21.7454 27.1058 23.1495 23.9611 25.6216L16.0995 31.8017C12.9548 34.2738 11.5506 34.1056 9.07854 30.961L2.8984 23.0993C0.426349 19.9546 0.594502 18.5504 3.73918 16.0784L4.91843 15.1514C6.09768 14.2243 6.62903 14.3663 7.54683 14.6115L9.96211 15.2568C10.5699 15.4151 10.9282 15.515 11.7144 14.897L14.0729 13.0429C17.2176 10.5709 18.6218 10.739 21.0938 13.8837Z" stroke="#BCBCBC" stroke-width="1.5" stroke-miterlimit="10"/>
<path d="M243.75 116.117L244.192 122.101C244.487 126.09 243.563 127.161 239.574 127.456L229.601 128.192C225.612 128.487 224.541 127.563 224.247 123.574L223.51 113.601C223.216 109.612 224.139 108.541 228.128 108.246L229.624 108.136C231.12 108.025 231.482 108.44 232.106 109.156L233.749 111.04C234.165 111.511 234.407 111.794 235.404 111.72L238.396 111.499C242.385 111.204 243.456 112.128 243.75 116.117Z" stroke="#BCBCBC" stroke-width="1.5" stroke-miterlimit="10"/>
<path d="M61.3222 163.844L64.6172 168.858C66.8139 172.201 66.5274 173.586 63.1845 175.782L54.8274 181.274C51.4845 183.471 50.0997 183.184 47.903 179.841L42.4113 171.484C40.2146 168.141 40.5012 166.757 43.844 164.56L45.0976 163.736C46.3512 162.912 46.8686 163.099 47.7623 163.421L50.1142 164.269C50.7064 164.478 51.055 164.608 51.8907 164.059L54.3978 162.411C57.7407 160.214 59.1256 160.501 61.3222 163.844Z" stroke="#BCBCBC" stroke-width="1.5" stroke-miterlimit="10"/>
<path d="M473.291 127.117L473.733 133.101C474.027 137.09 473.104 138.161 469.114 138.456L459.142 139.192C455.153 139.487 454.082 138.563 453.787 134.574L453.05 124.601C452.756 120.612 453.679 119.541 457.669 119.246L459.164 119.136C460.66 119.025 461.022 119.44 461.646 120.156L463.29 122.04C463.705 122.511 463.947 122.794 464.944 122.72L467.936 122.499C471.925 122.204 472.996 123.128 473.291 127.117Z" stroke="#BCBCBC" stroke-width="1.5" stroke-miterlimit="10"/>
<path d="M409.291 9.11717L409.733 15.1009C410.027 19.09 409.104 20.1609 405.114 20.4556L395.142 21.1921C391.153 21.4868 390.082 20.5631 389.787 16.574L389.05 6.60116C388.756 2.61203 389.679 1.54109 393.669 1.24646L395.164 1.13598C396.66 1.02549 397.022 1.43999 397.646 2.15594L399.29 4.04003C399.705 4.51068 399.947 4.79366 400.944 4.72L403.936 4.49903C407.925 4.20441 408.996 5.12804 409.291 9.11717Z" stroke="#BCBCBC" stroke-width="1.5" stroke-miterlimit="10"/>
<path d="M754.943 48.9786L752.517 54.4665C750.9 58.1252 749.582 58.6356 745.923 57.0187L736.776 52.9764C733.118 51.3595 732.607 50.0406 734.224 46.382L738.266 37.2354C739.883 33.5768 741.202 33.0663 744.861 34.6832L746.233 35.2896C747.605 35.8959 747.729 36.4318 747.943 37.3573L748.506 39.793C748.652 40.4039 748.732 40.7672 749.647 41.1715L752.391 42.3842C756.049 44.0011 756.56 45.3199 754.943 48.9786Z" stroke="#BCBCBC" stroke-width="1.5" stroke-miterlimit="10"/>
<path d="M650.917 227.954L648.492 233.442C646.875 237.101 645.556 237.611 641.898 235.994L632.751 231.952C629.092 230.335 628.582 229.016 630.199 225.358L634.241 216.211C635.858 212.552 637.177 212.042 640.835 213.659L642.207 214.265C643.579 214.872 643.703 215.407 643.918 216.333L644.481 218.769C644.627 219.38 644.707 219.743 645.621 220.147L648.365 221.36C652.024 222.977 652.534 224.296 650.917 227.954Z" stroke="#BCBCBC" stroke-width="1.5" stroke-miterlimit="10"/>
<path d="M784.6 225.5V220.5" stroke="#BCBCBC" stroke-width="1.5" stroke-miterlimit="10" stroke-linecap="round" stroke-linejoin="round"/>
<path d="M787.04 223H782.04" stroke="#BCBCBC" stroke-width="1.5" stroke-miterlimit="10" stroke-linecap="round" stroke-linejoin="round"/>
<path d="M794.54 220V226C794.54 230 793.54 231 789.54 231H779.54C775.54 231 774.54 230 774.54 226V216C774.54 212 775.54 211 779.54 211H781.04C782.54 211 782.87 211.44 783.44 212.2L784.94 214.2C785.32 214.7 785.54 215 786.54 215H789.54C793.54 215 794.54 216 794.54 220Z" stroke="#BCBCBC" stroke-width="1.5" stroke-miterlimit="10"/>
<path d="M569.6 15.5V10.5" stroke="#BCBCBC" stroke-width="1.5" stroke-miterlimit="10" stroke-linecap="round" stroke-linejoin="round"/>
<path d="M572.04 13H567.04" stroke="#BCBCBC" stroke-width="1.5" stroke-miterlimit="10" stroke-linecap="round" stroke-linejoin="round"/>
<path d="M579.54 10V16C579.54 20 578.54 21 574.54 21H564.54C560.54 21 559.54 20 559.54 16V6C559.54 2 560.54 1 564.54 1H566.04C567.54 1 567.87 1.44 568.44 2.2L569.94 4.2C570.32 4.7 570.54 5 571.54 5H574.54C578.54 5 579.54 6 579.54 10Z" stroke="#BCBCBC" stroke-width="1.5" stroke-miterlimit="10"/>
</svg>
