<svg width="30" height="30" viewBox="0 0 35 20" fill="none" xmlns="http://www.w3.org/2000/svg">
<path d="M17.6127 0H17.8074C19.6056 0.00533855 28.7171 0.0587244 31.1738 0.596139C31.9165 0.760154 32.5933 1.07985 33.1365 1.52328C33.6797 1.96671 34.0703 2.51834 34.2693 3.12305C34.4903 3.79927 34.6456 4.69437 34.7506 5.61794L34.7725 5.80301L34.8206 6.26568L34.8381 6.45075C34.9803 8.07723 34.9978 9.6005 35 9.93327V10.0667C34.9978 10.412 34.9781 12.0384 34.8206 13.7325L34.8031 13.9194L34.7834 14.1045C34.674 15.1223 34.5122 16.1331 34.2693 16.8769C34.0709 17.4819 33.6805 18.0338 33.1372 18.4773C32.5939 18.9208 31.9168 19.2403 31.1738 19.4039C28.6362 19.9591 18.9909 19.9982 17.6542 20H17.3436C16.6676 20 13.8718 19.9893 10.9404 19.9075L10.5685 19.8968L10.3781 19.8897L10.0041 19.8772L9.62998 19.8648C7.2017 19.7776 4.88937 19.637 3.82399 19.4021C3.08126 19.2387 2.40436 18.9194 1.86108 18.4763C1.3178 18.0331 0.927223 17.4816 0.728483 16.8769C0.485655 16.1349 0.32377 15.1223 0.214388 14.1045L0.196887 13.9176L0.179386 13.7325C0.0714211 12.5267 0.0115942 11.3184 0 10.1094L0 9.89056C0.00437527 9.50796 0.0218764 8.18578 0.140009 6.72658L0.155322 6.54329L0.161885 6.45075L0.179386 6.26568L0.227514 5.80301L0.249391 5.61794C0.354397 4.69437 0.509719 3.79749 0.730671 3.12305C0.929075 2.5181 1.3195 1.96621 1.8628 1.5227C2.4061 1.0792 3.08319 0.759663 3.82618 0.596139C4.89156 0.364801 7.20389 0.22244 9.63216 0.133464L10.0041 0.121007L10.3803 0.11033L10.5685 0.104992L10.9426 0.0925352C13.0246 0.0380367 15.1074 0.00778159 17.1905 0.0017796H17.6127V0ZM14.0009 5.71225V14.286L23.0949 10.0009L14.0009 5.71225Z" fill="white"/>
</svg>
